<mxfile host="app.diagrams.net" modified="2024-03-03T20:33:37.048Z" agent="Mozilla/5.0 (Windows NT 10.0; Win64; x64) AppleWebKit/537.36 (KHTML, like Gecko) Chrome/122.0.0.0 Safari/537.36" etag="db5ncAyvvYRJueEFHIVX" version="23.1.7" type="device" pages="4">
  <diagram id="MQkKOg_bM3MWe5oMNnio" name="Seq1">
    <mxGraphModel dx="3585" dy="4588" grid="1" gridSize="10" guides="1" tooltips="1" connect="1" arrows="1" fold="1" page="1" pageScale="1" pageWidth="827" pageHeight="1169" background="#ffffff" math="0" shadow="1">
      <root>
        <mxCell id="0" />
        <mxCell id="1" parent="0" />
        <mxCell id="xDlylMHlQquhe8upw_E9-1" value="&lt;b&gt;Client/&lt;br&gt;Browser&lt;/b&gt;" style="shape=umlLifeline;perimeter=lifelinePerimeter;whiteSpace=wrap;html=1;container=1;dropTarget=0;collapsible=0;recursiveResize=0;outlineConnect=0;portConstraint=eastwest;newEdgeStyle={&quot;curved&quot;:0,&quot;rounded&quot;:0};size=80;" parent="1" vertex="1">
          <mxGeometry x="14" y="-2290" width="100" height="1290" as="geometry" />
        </mxCell>
        <mxCell id="dbGryQZsQo5Yz86AOUxG-22" value="" style="html=1;points=[[0,0,0,0,5],[0,1,0,0,-5],[1,0,0,0,5],[1,0.11,0,0,0],[1,0.95,0,0,0],[1,1,0,0,-5]];perimeter=orthogonalPerimeter;outlineConnect=0;targetShapes=umlLifeline;portConstraint=eastwest;newEdgeStyle={&quot;curved&quot;:0,&quot;rounded&quot;:0};" parent="xDlylMHlQquhe8upw_E9-1" vertex="1">
          <mxGeometry x="44" y="202" width="10" height="702" as="geometry" />
        </mxCell>
        <mxCell id="OrUkxoRG1ota5-fYZEzL-128" value="" style="html=1;points=[[0,0,0,0,5],[0,1,0,0,-5],[1,0,0,0,5],[1,1,0,0,-5]];perimeter=orthogonalPerimeter;outlineConnect=0;targetShapes=umlLifeline;portConstraint=eastwest;newEdgeStyle={&quot;curved&quot;:0,&quot;rounded&quot;:0};" parent="xDlylMHlQquhe8upw_E9-1" vertex="1">
          <mxGeometry x="45" y="1147" width="10" height="62" as="geometry" />
        </mxCell>
        <mxCell id="xDlylMHlQquhe8upw_E9-2" value="&lt;h3 style=&quot;border-color: var(--border-color);&quot;&gt;order&lt;/h3&gt;&lt;font style=&quot;border-color: var(--border-color); font-size: 11px;&quot;&gt;сервис заказов&lt;/font&gt;" style="shape=umlLifeline;perimeter=lifelinePerimeter;whiteSpace=wrap;html=1;container=1;dropTarget=0;collapsible=0;recursiveResize=0;outlineConnect=0;portConstraint=eastwest;newEdgeStyle={&quot;curved&quot;:0,&quot;rounded&quot;:0};size=80;" parent="1" vertex="1">
          <mxGeometry x="185" y="-2290" width="100" height="1290" as="geometry" />
        </mxCell>
        <mxCell id="dbGryQZsQo5Yz86AOUxG-23" value="" style="html=1;points=[[0,0.04,0,0,0],[0,0.96,0,0,0],[1,0,0,0,5],[1,0.11,0,0,0],[1,0.28,0,0,0],[1,1,0,0,-5]];perimeter=orthogonalPerimeter;outlineConnect=0;targetShapes=umlLifeline;portConstraint=eastwest;newEdgeStyle={&quot;curved&quot;:0,&quot;rounded&quot;:0};" parent="xDlylMHlQquhe8upw_E9-2" vertex="1">
          <mxGeometry x="44" y="280" width="10" height="44" as="geometry" />
        </mxCell>
        <mxCell id="OrUkxoRG1ota5-fYZEzL-108" value="" style="html=1;points=[[0,0,0,0,5],[0,1,0,0,-5],[1,0,0,0,5],[1,1,0,0,-5]];perimeter=orthogonalPerimeter;outlineConnect=0;targetShapes=umlLifeline;portConstraint=eastwest;newEdgeStyle={&quot;curved&quot;:0,&quot;rounded&quot;:0};" parent="xDlylMHlQquhe8upw_E9-2" vertex="1">
          <mxGeometry x="45" y="1074" width="10" height="24" as="geometry" />
        </mxCell>
        <mxCell id="xDlylMHlQquhe8upw_E9-3" value="&lt;h3 style=&quot;border-color: var(--border-color);&quot;&gt;payment&lt;/h3&gt;&lt;font style=&quot;border-color: var(--border-color); font-size: 11px;&quot;&gt;сервис оплаты&lt;/font&gt;" style="shape=umlLifeline;perimeter=lifelinePerimeter;whiteSpace=wrap;html=1;container=1;dropTarget=0;collapsible=0;recursiveResize=0;outlineConnect=0;portConstraint=eastwest;newEdgeStyle={&quot;curved&quot;:0,&quot;rounded&quot;:0};size=80;" parent="1" vertex="1">
          <mxGeometry x="540" y="-2290" width="100" height="1290" as="geometry" />
        </mxCell>
        <mxCell id="dbGryQZsQo5Yz86AOUxG-40" value="" style="html=1;points=[[0,0,0,0,5],[0,0.39,0,0,0],[0,1,0,0,-5],[1,0.06,0,0,0],[1,0.19,0,0,0],[1,0.28,0,0,0],[1,0.86,0,0,0],[1,1,0,0,-5]];perimeter=orthogonalPerimeter;outlineConnect=0;targetShapes=umlLifeline;portConstraint=eastwest;newEdgeStyle={&quot;curved&quot;:0,&quot;rounded&quot;:0};" parent="xDlylMHlQquhe8upw_E9-3" vertex="1">
          <mxGeometry x="45" y="681" width="10" height="113" as="geometry" />
        </mxCell>
        <mxCell id="dbGryQZsQo5Yz86AOUxG-49" value="Дебетование счета" style="html=1;align=left;spacingLeft=2;endArrow=block;rounded=0;edgeStyle=orthogonalEdgeStyle;curved=0;rounded=0;exitX=1;exitY=0.06;exitDx=0;exitDy=0;exitPerimeter=0;" parent="xDlylMHlQquhe8upw_E9-3" edge="1">
          <mxGeometry x="-0.2499" relative="1" as="geometry">
            <mxPoint x="55" y="724.7800000000002" as="sourcePoint" />
            <Array as="points">
              <mxPoint x="55" y="732" />
              <mxPoint x="69" y="732" />
              <mxPoint x="69" y="752" />
              <mxPoint x="55" y="752" />
            </Array>
            <mxPoint x="55" y="752" as="targetPoint" />
            <mxPoint as="offset" />
          </mxGeometry>
        </mxCell>
        <mxCell id="OrUkxoRG1ota5-fYZEzL-87" value="" style="html=1;points=[[0,0,0,0,5],[0,1,0,0,-5],[1,0,0,0,5],[1,1,0,0,-5]];perimeter=orthogonalPerimeter;outlineConnect=0;targetShapes=umlLifeline;portConstraint=eastwest;newEdgeStyle={&quot;curved&quot;:0,&quot;rounded&quot;:0};" parent="xDlylMHlQquhe8upw_E9-3" vertex="1">
          <mxGeometry x="45" y="899" width="10" height="24" as="geometry" />
        </mxCell>
        <mxCell id="xDlylMHlQquhe8upw_E9-4" value="&lt;h3 style=&quot;border-color: var(--border-color);&quot;&gt;auth&lt;/h3&gt;&lt;font style=&quot;border-color: var(--border-color); font-size: 11px;&quot;&gt;сервис аутентифкации&lt;/font&gt;" style="shape=umlLifeline;perimeter=lifelinePerimeter;whiteSpace=wrap;html=1;container=1;dropTarget=0;collapsible=0;recursiveResize=0;outlineConnect=0;portConstraint=eastwest;newEdgeStyle={&quot;curved&quot;:0,&quot;rounded&quot;:0};size=80;" parent="1" vertex="1">
          <mxGeometry x="360" y="-2290" width="100" height="1290" as="geometry" />
        </mxCell>
        <mxCell id="dbGryQZsQo5Yz86AOUxG-31" value="" style="html=1;points=[[0,0,0,0,5],[0,1,0,0,-5],[1,0,0,0,5],[1,1,0,0,-5]];perimeter=orthogonalPerimeter;outlineConnect=0;targetShapes=umlLifeline;portConstraint=eastwest;newEdgeStyle={&quot;curved&quot;:0,&quot;rounded&quot;:0};" parent="xDlylMHlQquhe8upw_E9-4" vertex="1">
          <mxGeometry x="44" y="287" width="10" height="28" as="geometry" />
        </mxCell>
        <mxCell id="OrUkxoRG1ota5-fYZEzL-69" value="" style="html=1;points=[[0,0,0,0,5],[0,1,0,0,-5],[1,0,0,0,5],[1,1,0,0,-5]];perimeter=orthogonalPerimeter;outlineConnect=0;targetShapes=umlLifeline;portConstraint=eastwest;newEdgeStyle={&quot;curved&quot;:0,&quot;rounded&quot;:0};" parent="xDlylMHlQquhe8upw_E9-4" vertex="1">
          <mxGeometry x="44" y="699" width="10" height="25" as="geometry" />
        </mxCell>
        <mxCell id="mJj4LaV5GVNOuHF34gLf-1" value="&lt;h3 style=&quot;border-color: var(--border-color);&quot;&gt;notification&lt;/h3&gt;&lt;font style=&quot;border-color: var(--border-color); font-size: 11px;&quot;&gt;система уведомлений&lt;/font&gt;" style="shape=umlLifeline;perimeter=lifelinePerimeter;whiteSpace=wrap;html=1;container=1;dropTarget=0;collapsible=0;recursiveResize=0;outlineConnect=0;portConstraint=eastwest;newEdgeStyle={&quot;curved&quot;:0,&quot;rounded&quot;:0};size=80;" parent="1" vertex="1">
          <mxGeometry x="1360" y="-2290" width="100" height="1290" as="geometry" />
        </mxCell>
        <mxCell id="dbGryQZsQo5Yz86AOUxG-42" value="" style="html=1;points=[[0,0,0,0,5],[0,0.39,0,0,0],[0,1,0,0,-5],[1,0,0,0,5],[1,0.19,0,0,0],[1,0.81,0,0,0],[1,1,0,0,-5]];perimeter=orthogonalPerimeter;outlineConnect=0;targetShapes=umlLifeline;portConstraint=eastwest;newEdgeStyle={&quot;curved&quot;:0,&quot;rounded&quot;:0};" parent="mJj4LaV5GVNOuHF34gLf-1" vertex="1">
          <mxGeometry x="44" y="760" width="10" height="25" as="geometry" />
        </mxCell>
        <mxCell id="TiG1seu6rQsgGEtZZNb--1" value="&lt;h3 style=&quot;border-color: var(--border-color);&quot;&gt;smtp&lt;/h3&gt;&lt;h3 style=&quot;border-color: var(--border-color);&quot;&gt;&lt;font style=&quot;border-color: var(--border-color); font-weight: 400; font-size: 11px;&quot;&gt;почтовый сервис&amp;nbsp;&lt;/font&gt;&lt;br&gt;&lt;/h3&gt;" style="shape=umlLifeline;perimeter=lifelinePerimeter;whiteSpace=wrap;html=1;container=1;dropTarget=0;collapsible=0;recursiveResize=0;outlineConnect=0;portConstraint=eastwest;newEdgeStyle={&quot;curved&quot;:0,&quot;rounded&quot;:0};size=80;fillColor=#E6E6E6;" parent="1" vertex="1">
          <mxGeometry x="1490" y="-2290" width="100" height="1290" as="geometry" />
        </mxCell>
        <mxCell id="dbGryQZsQo5Yz86AOUxG-43" value="" style="html=1;points=[[0,0,0,0,5],[0,0.39,0,0,0],[0,1,0,0,-5],[1,0,0,0,5],[1,0.5,0,0,0],[1,0.86,0,0,0],[1,1,0,0,-5]];perimeter=orthogonalPerimeter;outlineConnect=0;targetShapes=umlLifeline;portConstraint=eastwest;newEdgeStyle={&quot;curved&quot;:0,&quot;rounded&quot;:0};" parent="TiG1seu6rQsgGEtZZNb--1" vertex="1">
          <mxGeometry x="45" y="762" width="10" height="20" as="geometry" />
        </mxCell>
        <mxCell id="dbGryQZsQo5Yz86AOUxG-24" value="Создать заказ" style="html=1;verticalAlign=bottom;endArrow=block;curved=0;rounded=0;entryX=0;entryY=0.04;entryDx=0;entryDy=0;entryPerimeter=0;" parent="1" edge="1">
          <mxGeometry width="80" relative="1" as="geometry">
            <mxPoint x="68" y="-2005.24" as="sourcePoint" />
            <mxPoint x="229" y="-2005.24" as="targetPoint" />
            <mxPoint as="offset" />
          </mxGeometry>
        </mxCell>
        <mxCell id="dbGryQZsQo5Yz86AOUxG-26" value="Заказ создан" style="html=1;verticalAlign=bottom;endArrow=open;dashed=1;endSize=8;curved=0;rounded=0;exitX=-0.152;exitY=0.899;exitDx=0;exitDy=0;exitPerimeter=0;" parent="1" source="dbGryQZsQo5Yz86AOUxG-23" target="dbGryQZsQo5Yz86AOUxG-22" edge="1">
          <mxGeometry relative="1" as="geometry">
            <mxPoint x="214" y="-1840" as="sourcePoint" />
            <mxPoint x="119" y="-1942.8" as="targetPoint" />
          </mxGeometry>
        </mxCell>
        <mxCell id="dbGryQZsQo5Yz86AOUxG-27" value="" style="html=1;points=[[0,0,0,0,5],[0,1,0,0,-5],[1,0,0,0,5],[1,1,0,0,-5]];perimeter=orthogonalPerimeter;outlineConnect=0;targetShapes=umlLifeline;portConstraint=eastwest;newEdgeStyle={&quot;curved&quot;:0,&quot;rounded&quot;:0};" parent="1" vertex="1">
          <mxGeometry x="404" y="-2081" width="10" height="27" as="geometry" />
        </mxCell>
        <mxCell id="dbGryQZsQo5Yz86AOUxG-28" value="opt" style="shape=umlFrame;whiteSpace=wrap;html=1;pointerEvents=0;width=60;height=20;" parent="1" vertex="1">
          <mxGeometry x="30" y="-2116" width="430" height="77" as="geometry" />
        </mxCell>
        <mxCell id="dbGryQZsQo5Yz86AOUxG-29" value="Логин" style="html=1;verticalAlign=bottom;endArrow=block;curved=0;rounded=0;entryX=0;entryY=0;entryDx=0;entryDy=5;entryPerimeter=0;" parent="1" source="dbGryQZsQo5Yz86AOUxG-22" target="dbGryQZsQo5Yz86AOUxG-27" edge="1">
          <mxGeometry width="80" relative="1" as="geometry">
            <mxPoint x="119" y="-2077" as="sourcePoint" />
            <mxPoint x="349" y="-2074" as="targetPoint" />
          </mxGeometry>
        </mxCell>
        <mxCell id="dbGryQZsQo5Yz86AOUxG-30" value="OK" style="html=1;verticalAlign=bottom;endArrow=open;dashed=1;endSize=8;curved=0;rounded=0;exitX=0;exitY=1;exitDx=0;exitDy=-5;exitPerimeter=0;" parent="1" source="dbGryQZsQo5Yz86AOUxG-27" target="dbGryQZsQo5Yz86AOUxG-22" edge="1">
          <mxGeometry x="0.0087" relative="1" as="geometry">
            <mxPoint x="349" y="-2062.5" as="sourcePoint" />
            <mxPoint x="70" y="-2059" as="targetPoint" />
            <mxPoint as="offset" />
          </mxGeometry>
        </mxCell>
        <mxCell id="dbGryQZsQo5Yz86AOUxG-34" value="Авторизован?" style="html=1;verticalAlign=bottom;endArrow=block;curved=0;rounded=0;exitX=1;exitY=0.28;exitDx=0;exitDy=0;exitPerimeter=0;entryX=0;entryY=0;entryDx=0;entryDy=5;entryPerimeter=0;" parent="1" source="dbGryQZsQo5Yz86AOUxG-23" target="dbGryQZsQo5Yz86AOUxG-31" edge="1">
          <mxGeometry width="80" relative="1" as="geometry">
            <mxPoint x="484" y="-1987" as="sourcePoint" />
            <mxPoint x="564" y="-1987" as="targetPoint" />
          </mxGeometry>
        </mxCell>
        <mxCell id="dbGryQZsQo5Yz86AOUxG-35" value="Да" style="html=1;verticalAlign=bottom;endArrow=open;dashed=1;endSize=8;curved=0;rounded=0;exitX=0;exitY=1;exitDx=0;exitDy=-5;exitPerimeter=0;" parent="1" source="dbGryQZsQo5Yz86AOUxG-31" target="dbGryQZsQo5Yz86AOUxG-23" edge="1">
          <mxGeometry relative="1" as="geometry">
            <mxPoint x="334" y="-1927" as="sourcePoint" />
            <mxPoint x="254" y="-1927" as="targetPoint" />
          </mxGeometry>
        </mxCell>
        <mxCell id="dbGryQZsQo5Yz86AOUxG-39" value="Оплатить заказ" style="html=1;verticalAlign=bottom;endArrow=block;curved=0;rounded=0;entryX=0;entryY=0;entryDx=0;entryDy=5;entryPerimeter=0;" parent="1" source="dbGryQZsQo5Yz86AOUxG-22" target="dbGryQZsQo5Yz86AOUxG-40" edge="1">
          <mxGeometry width="80" relative="1" as="geometry">
            <mxPoint x="70" y="-1606" as="sourcePoint" />
            <mxPoint x="584" y="-1591" as="targetPoint" />
          </mxGeometry>
        </mxCell>
        <mxCell id="dbGryQZsQo5Yz86AOUxG-41" value="Результат оплаты заказа" style="html=1;verticalAlign=bottom;endArrow=open;dashed=1;endSize=8;curved=0;rounded=0;exitX=0;exitY=1;exitDx=0;exitDy=-5;exitPerimeter=0;" parent="1" source="dbGryQZsQo5Yz86AOUxG-40" target="dbGryQZsQo5Yz86AOUxG-22" edge="1">
          <mxGeometry relative="1" as="geometry">
            <mxPoint x="454" y="-1541" as="sourcePoint" />
            <mxPoint x="70" y="-1501" as="targetPoint" />
          </mxGeometry>
        </mxCell>
        <mxCell id="dbGryQZsQo5Yz86AOUxG-44" value="Отправка письма" style="html=1;verticalAlign=bottom;endArrow=block;curved=0;rounded=0;entryX=0;entryY=0;entryDx=0;entryDy=5;entryPerimeter=0;exitX=1;exitY=0.19;exitDx=0;exitDy=0;exitPerimeter=0;" parent="1" edge="1">
          <mxGeometry width="80" relative="1" as="geometry">
            <mxPoint x="1414" y="-1522.2499999999998" as="sourcePoint" />
            <mxPoint x="1535" y="-1522" as="targetPoint" />
          </mxGeometry>
        </mxCell>
        <mxCell id="dbGryQZsQo5Yz86AOUxG-45" value="Письмо отправлено" style="html=1;verticalAlign=bottom;endArrow=open;dashed=1;endSize=8;curved=0;rounded=0;exitX=0;exitY=1;exitDx=0;exitDy=-5;exitPerimeter=0;entryX=1;entryY=0.81;entryDx=0;entryDy=0;entryPerimeter=0;" parent="1" edge="1">
          <mxGeometry x="-0.0241" y="19" relative="1" as="geometry">
            <mxPoint x="1535" y="-1513" as="sourcePoint" />
            <mxPoint x="1414" y="-1512.75" as="targetPoint" />
            <mxPoint as="offset" />
          </mxGeometry>
        </mxCell>
        <mxCell id="dbGryQZsQo5Yz86AOUxG-46" value="Уведомление о результате оплаты" style="html=1;verticalAlign=bottom;endArrow=block;curved=0;rounded=0;entryX=0;entryY=0;entryDx=0;entryDy=5;entryPerimeter=0;" parent="1" target="dbGryQZsQo5Yz86AOUxG-42" edge="1">
          <mxGeometry x="0.0048" width="80" relative="1" as="geometry">
            <mxPoint x="595" y="-1525" as="sourcePoint" />
            <mxPoint x="564" y="-1490" as="targetPoint" />
            <mxPoint as="offset" />
          </mxGeometry>
        </mxCell>
        <mxCell id="dbGryQZsQo5Yz86AOUxG-47" value="" style="html=1;verticalAlign=bottom;endArrow=open;dashed=1;endSize=8;curved=0;rounded=0;exitX=0;exitY=1;exitDx=0;exitDy=-5;exitPerimeter=0;" parent="1" source="dbGryQZsQo5Yz86AOUxG-42" edge="1">
          <mxGeometry x="0.0378" y="16" relative="1" as="geometry">
            <mxPoint x="564" y="-1490" as="sourcePoint" />
            <mxPoint x="595" y="-1510" as="targetPoint" />
            <mxPoint as="offset" />
          </mxGeometry>
        </mxCell>
        <mxCell id="YmrN5yx_vx4CM87xxHWf-8" value="заказ и &lt;br&gt;оплата (с кошелька)" style="shape=umlFrame;whiteSpace=wrap;html=1;pointerEvents=0;width=137;height=27;" parent="1" vertex="1">
          <mxGeometry x="13" y="-2153" width="1587" height="1107" as="geometry" />
        </mxCell>
        <mxCell id="OrUkxoRG1ota5-fYZEzL-13" value="&lt;h3 style=&quot;border-color: var(--border-color);&quot;&gt;bank-api&lt;/h3&gt;&lt;font style=&quot;border-color: var(--border-color); font-size: 11px;&quot;&gt;внешний интерфейс оплаты&lt;/font&gt;" style="shape=umlLifeline;perimeter=lifelinePerimeter;whiteSpace=wrap;html=1;container=1;dropTarget=0;collapsible=0;recursiveResize=0;outlineConnect=0;portConstraint=eastwest;newEdgeStyle={&quot;curved&quot;:0,&quot;rounded&quot;:0};size=80;fillColor=#E6E6E6;" parent="1" vertex="1">
          <mxGeometry x="720" y="-2290" width="100" height="1290" as="geometry" />
        </mxCell>
        <mxCell id="OrUkxoRG1ota5-fYZEzL-37" value="" style="html=1;points=[[0,0.04,0,0,0],[0,0.96,0,0,0],[1,0,0,0,5],[1,0.11,0,0,0],[1,0.28,0,0,0],[1,1,0,0,-5]];perimeter=orthogonalPerimeter;outlineConnect=0;targetShapes=umlLifeline;portConstraint=eastwest;newEdgeStyle={&quot;curved&quot;:0,&quot;rounded&quot;:0};" parent="1" vertex="1">
          <mxGeometry x="230" y="-1925" width="10" height="44" as="geometry" />
        </mxCell>
        <mxCell id="OrUkxoRG1ota5-fYZEzL-38" value="" style="html=1;points=[[0,0,0,0,5],[0,1,0,0,-5],[1,0,0,0,5],[1,1,0,0,-5]];perimeter=orthogonalPerimeter;outlineConnect=0;targetShapes=umlLifeline;portConstraint=eastwest;newEdgeStyle={&quot;curved&quot;:0,&quot;rounded&quot;:0};" parent="1" vertex="1">
          <mxGeometry x="405" y="-1918" width="10" height="28" as="geometry" />
        </mxCell>
        <mxCell id="OrUkxoRG1ota5-fYZEzL-39" value="Изменить заказ" style="html=1;verticalAlign=bottom;endArrow=block;curved=0;rounded=0;entryX=0;entryY=0.04;entryDx=0;entryDy=0;entryPerimeter=0;" parent="1" source="dbGryQZsQo5Yz86AOUxG-22" edge="1">
          <mxGeometry width="80" relative="1" as="geometry">
            <mxPoint x="69" y="-1920.24" as="sourcePoint" />
            <mxPoint x="230" y="-1920.24" as="targetPoint" />
            <mxPoint as="offset" />
          </mxGeometry>
        </mxCell>
        <mxCell id="OrUkxoRG1ota5-fYZEzL-40" value="Заказ создан" style="html=1;verticalAlign=bottom;endArrow=open;dashed=1;endSize=8;curved=0;rounded=0;exitX=-0.152;exitY=0.899;exitDx=0;exitDy=0;exitPerimeter=0;" parent="1" source="OrUkxoRG1ota5-fYZEzL-37" edge="1">
          <mxGeometry relative="1" as="geometry">
            <mxPoint x="215" y="-1755" as="sourcePoint" />
            <mxPoint x="69" y="-1885" as="targetPoint" />
          </mxGeometry>
        </mxCell>
        <mxCell id="OrUkxoRG1ota5-fYZEzL-41" value="Авторизован?" style="html=1;verticalAlign=bottom;endArrow=block;curved=0;rounded=0;exitX=1;exitY=0.28;exitDx=0;exitDy=0;exitPerimeter=0;entryX=0;entryY=0;entryDx=0;entryDy=5;entryPerimeter=0;" parent="1" source="OrUkxoRG1ota5-fYZEzL-37" target="OrUkxoRG1ota5-fYZEzL-38" edge="1">
          <mxGeometry width="80" relative="1" as="geometry">
            <mxPoint x="485" y="-1902" as="sourcePoint" />
            <mxPoint x="565" y="-1902" as="targetPoint" />
          </mxGeometry>
        </mxCell>
        <mxCell id="OrUkxoRG1ota5-fYZEzL-42" value="Да" style="html=1;verticalAlign=bottom;endArrow=open;dashed=1;endSize=8;curved=0;rounded=0;exitX=0;exitY=1;exitDx=0;exitDy=-5;exitPerimeter=0;" parent="1" source="OrUkxoRG1ota5-fYZEzL-38" target="OrUkxoRG1ota5-fYZEzL-37" edge="1">
          <mxGeometry relative="1" as="geometry">
            <mxPoint x="335" y="-1842" as="sourcePoint" />
            <mxPoint x="255" y="-1842" as="targetPoint" />
          </mxGeometry>
        </mxCell>
        <mxCell id="OrUkxoRG1ota5-fYZEzL-43" value="opt" style="shape=umlFrame;whiteSpace=wrap;html=1;pointerEvents=0;width=60;height=20;" parent="1" vertex="1">
          <mxGeometry x="30" y="-1946" width="430" height="77" as="geometry" />
        </mxCell>
        <mxCell id="OrUkxoRG1ota5-fYZEzL-44" value="&lt;h3 style=&quot;border-color: var(--border-color);&quot;&gt;store&lt;/h3&gt;&lt;font style=&quot;border-color: var(--border-color); font-size: 11px;&quot;&gt;сервис склада&lt;/font&gt;" style="shape=umlLifeline;perimeter=lifelinePerimeter;whiteSpace=wrap;html=1;container=1;dropTarget=0;collapsible=0;recursiveResize=0;outlineConnect=0;portConstraint=eastwest;newEdgeStyle={&quot;curved&quot;:0,&quot;rounded&quot;:0};size=80;" parent="1" vertex="1">
          <mxGeometry x="890" y="-2290" width="100" height="1290" as="geometry" />
        </mxCell>
        <mxCell id="OrUkxoRG1ota5-fYZEzL-91" value="" style="html=1;points=[[0,0,0,0,5],[0,1,0,0,-5],[1,0,0,0,5],[1,1,0,0,-5]];perimeter=orthogonalPerimeter;outlineConnect=0;targetShapes=umlLifeline;portConstraint=eastwest;newEdgeStyle={&quot;curved&quot;:0,&quot;rounded&quot;:0};" parent="OrUkxoRG1ota5-fYZEzL-44" vertex="1">
          <mxGeometry x="45" y="944" width="10" height="24" as="geometry" />
        </mxCell>
        <mxCell id="OrUkxoRG1ota5-fYZEzL-49" value="&lt;h3 style=&quot;border-color: var(--border-color);&quot;&gt;delivery&lt;/h3&gt;&lt;font style=&quot;border-color: var(--border-color); font-size: 11px;&quot;&gt;сервис доставки&lt;/font&gt;" style="shape=umlLifeline;perimeter=lifelinePerimeter;whiteSpace=wrap;html=1;container=1;dropTarget=0;collapsible=0;recursiveResize=0;outlineConnect=0;portConstraint=eastwest;newEdgeStyle={&quot;curved&quot;:0,&quot;rounded&quot;:0};size=80;" parent="1" vertex="1">
          <mxGeometry x="1030" y="-2290" width="100" height="1290" as="geometry" />
        </mxCell>
        <mxCell id="OrUkxoRG1ota5-fYZEzL-58" value="" style="html=1;points=[[0,0,0,0,5],[0,1,0,0,-5],[1,0,0,0,5],[1,1,0,0,-5]];perimeter=orthogonalPerimeter;outlineConnect=0;targetShapes=umlLifeline;portConstraint=eastwest;newEdgeStyle={&quot;curved&quot;:0,&quot;rounded&quot;:0};" parent="OrUkxoRG1ota5-fYZEzL-49" vertex="1">
          <mxGeometry x="44" y="534" width="10" height="32" as="geometry" />
        </mxCell>
        <mxCell id="OrUkxoRG1ota5-fYZEzL-101" value="" style="html=1;points=[[0,0,0,0,5],[0,1,0,0,-5],[1,0,0,0,5],[1,1,0,0,-5]];perimeter=orthogonalPerimeter;outlineConnect=0;targetShapes=umlLifeline;portConstraint=eastwest;newEdgeStyle={&quot;curved&quot;:0,&quot;rounded&quot;:0};" parent="OrUkxoRG1ota5-fYZEzL-49" vertex="1">
          <mxGeometry x="44" y="1004" width="10" height="24" as="geometry" />
        </mxCell>
        <mxCell id="OrUkxoRG1ota5-fYZEzL-54" value="opt" style="shape=umlFrame;whiteSpace=wrap;html=1;pointerEvents=0;width=60;height=20;" parent="1" vertex="1">
          <mxGeometry x="30" y="-1852" width="950" height="60" as="geometry" />
        </mxCell>
        <mxCell id="OrUkxoRG1ota5-fYZEzL-55" value="" style="html=1;points=[[0,0,0,0,5],[0,1,0,0,-5],[1,0,0,0,5],[1,1,0,0,-5]];perimeter=orthogonalPerimeter;outlineConnect=0;targetShapes=umlLifeline;portConstraint=eastwest;newEdgeStyle={&quot;curved&quot;:0,&quot;rounded&quot;:0};" parent="1" vertex="1">
          <mxGeometry x="935" y="-1831.5" width="10" height="28" as="geometry" />
        </mxCell>
        <mxCell id="OrUkxoRG1ota5-fYZEzL-56" value="Получить сведения о наличии товара на складе" style="html=1;verticalAlign=bottom;endArrow=block;curved=0;rounded=0;entryX=0;entryY=0;entryDx=0;entryDy=5;entryPerimeter=0;" parent="1" target="OrUkxoRG1ota5-fYZEzL-55" edge="1">
          <mxGeometry width="80" relative="1" as="geometry">
            <mxPoint x="69" y="-1826" as="sourcePoint" />
            <mxPoint x="930" y="-1826" as="targetPoint" />
            <mxPoint as="offset" />
          </mxGeometry>
        </mxCell>
        <mxCell id="OrUkxoRG1ota5-fYZEzL-57" style="edgeStyle=orthogonalEdgeStyle;rounded=0;orthogonalLoop=1;jettySize=auto;html=1;curved=0;exitX=0;exitY=1;exitDx=0;exitDy=-5;exitPerimeter=0;dashed=1;" parent="1" source="OrUkxoRG1ota5-fYZEzL-55" edge="1">
          <mxGeometry relative="1" as="geometry">
            <mxPoint x="66" y="-1809" as="targetPoint" />
            <Array as="points">
              <mxPoint x="290" y="-1809" />
              <mxPoint x="290" y="-1809" />
            </Array>
          </mxGeometry>
        </mxCell>
        <mxCell id="OrUkxoRG1ota5-fYZEzL-59" value="Получить варианты доставки" style="html=1;verticalAlign=bottom;endArrow=block;curved=0;rounded=0;entryX=0;entryY=0;entryDx=0;entryDy=5;entryPerimeter=0;" parent="1" target="OrUkxoRG1ota5-fYZEzL-58" edge="1">
          <mxGeometry width="80" relative="1" as="geometry">
            <mxPoint x="68" y="-1751" as="sourcePoint" />
            <mxPoint x="1040" y="-1749" as="targetPoint" />
            <mxPoint as="offset" />
          </mxGeometry>
        </mxCell>
        <mxCell id="OrUkxoRG1ota5-fYZEzL-60" style="edgeStyle=orthogonalEdgeStyle;rounded=0;orthogonalLoop=1;jettySize=auto;html=1;curved=0;exitX=0;exitY=1;exitDx=0;exitDy=-5;exitPerimeter=0;dashed=1;entryX=0.54;entryY=0.642;entryDx=0;entryDy=0;entryPerimeter=0;" parent="1" source="OrUkxoRG1ota5-fYZEzL-58" edge="1">
          <mxGeometry relative="1" as="geometry">
            <mxPoint x="68" y="-1730.7" as="targetPoint" />
            <Array as="points">
              <mxPoint x="1074" y="-1731" />
            </Array>
          </mxGeometry>
        </mxCell>
        <mxCell id="OrUkxoRG1ota5-fYZEzL-61" value="opt" style="shape=umlFrame;whiteSpace=wrap;html=1;pointerEvents=0;width=60;height=20;" parent="1" vertex="1">
          <mxGeometry x="30" y="-1777" width="1090" height="60" as="geometry" />
        </mxCell>
        <mxCell id="OrUkxoRG1ota5-fYZEzL-62" value="" style="html=1;points=[[0,0.04,0,0,0],[0,0.96,0,0,0],[1,0,0,0,5],[1,0.11,0,0,0],[1,0.28,0,0,0],[1,1,0,0,-5]];perimeter=orthogonalPerimeter;outlineConnect=0;targetShapes=umlLifeline;portConstraint=eastwest;newEdgeStyle={&quot;curved&quot;:0,&quot;rounded&quot;:0};" parent="1" vertex="1">
          <mxGeometry x="229" y="-1695" width="10" height="44" as="geometry" />
        </mxCell>
        <mxCell id="OrUkxoRG1ota5-fYZEzL-63" value="" style="html=1;points=[[0,0,0,0,5],[0,1,0,0,-5],[1,0,0,0,5],[1,1,0,0,-5]];perimeter=orthogonalPerimeter;outlineConnect=0;targetShapes=umlLifeline;portConstraint=eastwest;newEdgeStyle={&quot;curved&quot;:0,&quot;rounded&quot;:0};" parent="1" vertex="1">
          <mxGeometry x="404" y="-1688" width="10" height="28" as="geometry" />
        </mxCell>
        <mxCell id="OrUkxoRG1ota5-fYZEzL-64" value="Добавить доставку к заказу" style="html=1;verticalAlign=bottom;endArrow=block;curved=0;rounded=0;entryX=0;entryY=0.04;entryDx=0;entryDy=0;entryPerimeter=0;" parent="1" edge="1">
          <mxGeometry width="80" relative="1" as="geometry">
            <mxPoint x="68" y="-1690.24" as="sourcePoint" />
            <mxPoint x="229" y="-1690.24" as="targetPoint" />
            <mxPoint as="offset" />
          </mxGeometry>
        </mxCell>
        <mxCell id="OrUkxoRG1ota5-fYZEzL-65" value="Доставка добавлена" style="html=1;verticalAlign=bottom;endArrow=open;dashed=1;endSize=8;curved=0;rounded=0;exitX=-0.152;exitY=0.899;exitDx=0;exitDy=0;exitPerimeter=0;" parent="1" source="OrUkxoRG1ota5-fYZEzL-62" edge="1">
          <mxGeometry relative="1" as="geometry">
            <mxPoint x="214" y="-1525" as="sourcePoint" />
            <mxPoint x="68" y="-1655" as="targetPoint" />
          </mxGeometry>
        </mxCell>
        <mxCell id="OrUkxoRG1ota5-fYZEzL-66" value="Авторизован?" style="html=1;verticalAlign=bottom;endArrow=block;curved=0;rounded=0;exitX=1;exitY=0.28;exitDx=0;exitDy=0;exitPerimeter=0;entryX=0;entryY=0;entryDx=0;entryDy=5;entryPerimeter=0;" parent="1" source="OrUkxoRG1ota5-fYZEzL-62" target="OrUkxoRG1ota5-fYZEzL-63" edge="1">
          <mxGeometry width="80" relative="1" as="geometry">
            <mxPoint x="484" y="-1672" as="sourcePoint" />
            <mxPoint x="564" y="-1672" as="targetPoint" />
          </mxGeometry>
        </mxCell>
        <mxCell id="OrUkxoRG1ota5-fYZEzL-67" value="Да" style="html=1;verticalAlign=bottom;endArrow=open;dashed=1;endSize=8;curved=0;rounded=0;exitX=0;exitY=1;exitDx=0;exitDy=-5;exitPerimeter=0;" parent="1" source="OrUkxoRG1ota5-fYZEzL-63" target="OrUkxoRG1ota5-fYZEzL-62" edge="1">
          <mxGeometry relative="1" as="geometry">
            <mxPoint x="334" y="-1612" as="sourcePoint" />
            <mxPoint x="254" y="-1612" as="targetPoint" />
          </mxGeometry>
        </mxCell>
        <mxCell id="OrUkxoRG1ota5-fYZEzL-68" value="" style="shape=image;verticalLabelPosition=bottom;labelBackgroundColor=default;verticalAlign=top;aspect=fixed;imageAspect=0;image=https://assets-global.website-files.com/6064b31ff49a2d31e0493af1/64836bf8d0bac274cea41125_rabbitmq.svg;" parent="1" vertex="1">
          <mxGeometry x="1090" y="-1546" width="20" height="20" as="geometry" />
        </mxCell>
        <mxCell id="OrUkxoRG1ota5-fYZEzL-70" value="Авторизован?" style="html=1;verticalAlign=bottom;endArrow=block;curved=0;rounded=0;entryX=1;entryY=0;entryDx=0;entryDy=5;entryPerimeter=0;" parent="1" target="OrUkxoRG1ota5-fYZEzL-69" edge="1">
          <mxGeometry width="80" relative="1" as="geometry">
            <mxPoint x="586" y="-1587" as="sourcePoint" />
            <mxPoint x="420" y="-1586" as="targetPoint" />
          </mxGeometry>
        </mxCell>
        <mxCell id="OrUkxoRG1ota5-fYZEzL-72" value="Да" style="html=1;verticalAlign=bottom;endArrow=open;dashed=1;endSize=8;curved=0;rounded=0;exitX=1;exitY=1;exitDx=0;exitDy=-5;exitPerimeter=0;" parent="1" source="OrUkxoRG1ota5-fYZEzL-69" target="dbGryQZsQo5Yz86AOUxG-40" edge="1">
          <mxGeometry x="0.0058" relative="1" as="geometry">
            <mxPoint x="450" y="-1566" as="sourcePoint" />
            <mxPoint x="580" y="-1571" as="targetPoint" />
            <mxPoint as="offset" />
          </mxGeometry>
        </mxCell>
        <mxCell id="OrUkxoRG1ota5-fYZEzL-73" value="" style="html=1;points=[[0,0.04,0,0,0],[0,0.96,0,0,0],[1,0,0,0,5],[1,0.11,0,0,0],[1,0.28,0,0,0],[1,1,0,0,-5]];perimeter=orthogonalPerimeter;outlineConnect=0;targetShapes=umlLifeline;portConstraint=eastwest;newEdgeStyle={&quot;curved&quot;:0,&quot;rounded&quot;:0};" parent="1" vertex="1">
          <mxGeometry x="229" y="-1476" width="10" height="90" as="geometry" />
        </mxCell>
        <mxCell id="OrUkxoRG1ota5-fYZEzL-74" value="" style="html=1;points=[[0,0,0,0,5],[0,1,0,0,-5],[1,0,0,0,5],[1,1,0,0,-5]];perimeter=orthogonalPerimeter;outlineConnect=0;targetShapes=umlLifeline;portConstraint=eastwest;newEdgeStyle={&quot;curved&quot;:0,&quot;rounded&quot;:0};" parent="1" vertex="1">
          <mxGeometry x="405" y="-1470" width="10" height="24" as="geometry" />
        </mxCell>
        <mxCell id="OrUkxoRG1ota5-fYZEzL-75" value="Заказ оплачен" style="html=1;verticalAlign=bottom;endArrow=block;curved=0;rounded=0;entryX=0;entryY=0.04;entryDx=0;entryDy=0;entryPerimeter=0;" parent="1" edge="1">
          <mxGeometry width="80" relative="1" as="geometry">
            <mxPoint x="68" y="-1471.24" as="sourcePoint" />
            <mxPoint x="229" y="-1471.24" as="targetPoint" />
            <mxPoint as="offset" />
          </mxGeometry>
        </mxCell>
        <mxCell id="OrUkxoRG1ota5-fYZEzL-76" value="ОК" style="html=1;verticalAlign=bottom;endArrow=open;dashed=1;endSize=8;curved=0;rounded=0;exitX=-0.152;exitY=0.899;exitDx=0;exitDy=0;exitPerimeter=0;" parent="1" source="OrUkxoRG1ota5-fYZEzL-73" target="dbGryQZsQo5Yz86AOUxG-22" edge="1">
          <mxGeometry relative="1" as="geometry">
            <mxPoint x="214" y="-1306" as="sourcePoint" />
            <mxPoint x="68" y="-1436" as="targetPoint" />
          </mxGeometry>
        </mxCell>
        <mxCell id="OrUkxoRG1ota5-fYZEzL-77" value="Авторизован?" style="html=1;verticalAlign=bottom;endArrow=block;curved=0;rounded=0;exitX=1;exitY=0.11;exitDx=0;exitDy=0;exitPerimeter=0;entryX=0;entryY=0;entryDx=0;entryDy=5;entryPerimeter=0;" parent="1" source="OrUkxoRG1ota5-fYZEzL-73" target="OrUkxoRG1ota5-fYZEzL-74" edge="1">
          <mxGeometry width="80" relative="1" as="geometry">
            <mxPoint x="484" y="-1453" as="sourcePoint" />
            <mxPoint x="564" y="-1453" as="targetPoint" />
          </mxGeometry>
        </mxCell>
        <mxCell id="OrUkxoRG1ota5-fYZEzL-78" value="Да" style="html=1;verticalAlign=bottom;endArrow=open;dashed=1;endSize=8;curved=0;rounded=0;exitX=0;exitY=1;exitDx=0;exitDy=-5;exitPerimeter=0;" parent="1" source="OrUkxoRG1ota5-fYZEzL-74" target="OrUkxoRG1ota5-fYZEzL-73" edge="1">
          <mxGeometry relative="1" as="geometry">
            <mxPoint x="334" y="-1393" as="sourcePoint" />
            <mxPoint x="254" y="-1393" as="targetPoint" />
          </mxGeometry>
        </mxCell>
        <mxCell id="OrUkxoRG1ota5-fYZEzL-79" value="&lt;h3 style=&quot;border-color: var(--border-color);&quot;&gt;orchestra&lt;/h3&gt;&lt;font style=&quot;font-size: 10px;&quot;&gt;сервис согласования заказа&lt;/font&gt;" style="shape=umlLifeline;perimeter=lifelinePerimeter;whiteSpace=wrap;html=1;container=1;dropTarget=0;collapsible=0;recursiveResize=0;outlineConnect=0;portConstraint=eastwest;newEdgeStyle={&quot;curved&quot;:0,&quot;rounded&quot;:0};size=80;" parent="1" vertex="1">
          <mxGeometry x="1180" y="-2290" width="100" height="1290" as="geometry" />
        </mxCell>
        <mxCell id="OrUkxoRG1ota5-fYZEzL-81" value="" style="html=1;points=[[0,0,0,0,5],[0,1,0,0,-5],[1,0,0,0,5],[1,1,0,0,-5]];perimeter=orthogonalPerimeter;outlineConnect=0;targetShapes=umlLifeline;portConstraint=eastwest;newEdgeStyle={&quot;curved&quot;:0,&quot;rounded&quot;:0};" parent="OrUkxoRG1ota5-fYZEzL-79" vertex="1">
          <mxGeometry x="45" y="859" width="10" height="255" as="geometry" />
        </mxCell>
        <mxCell id="OrUkxoRG1ota5-fYZEzL-82" value="Заказ передан на согласование" style="html=1;verticalAlign=bottom;endArrow=block;curved=0;rounded=0;entryX=0;entryY=0;entryDx=0;entryDy=5;entryPerimeter=0;" parent="1" source="OrUkxoRG1ota5-fYZEzL-73" target="OrUkxoRG1ota5-fYZEzL-81" edge="1">
          <mxGeometry width="80" relative="1" as="geometry">
            <mxPoint x="238" y="-1426.28" as="sourcePoint" />
            <mxPoint x="404" y="-1426.28" as="targetPoint" />
          </mxGeometry>
        </mxCell>
        <mxCell id="OrUkxoRG1ota5-fYZEzL-83" style="edgeStyle=orthogonalEdgeStyle;rounded=0;orthogonalLoop=1;jettySize=auto;html=1;curved=0;exitX=-0.089;exitY=0.117;exitDx=0;exitDy=0;exitPerimeter=0;dashed=1;" parent="1" source="OrUkxoRG1ota5-fYZEzL-81" edge="1">
          <mxGeometry relative="1" as="geometry">
            <mxPoint x="238" y="-1412" as="targetPoint" />
            <Array as="points">
              <mxPoint x="732" y="-1412" />
              <mxPoint x="238" y="-1412" />
            </Array>
          </mxGeometry>
        </mxCell>
        <mxCell id="OrUkxoRG1ota5-fYZEzL-84" value="" style="shape=image;verticalLabelPosition=bottom;labelBackgroundColor=default;verticalAlign=top;aspect=fixed;imageAspect=0;image=https://assets-global.website-files.com/6064b31ff49a2d31e0493af1/64836bf8d0bac274cea41125_rabbitmq.svg;" parent="1" vertex="1">
          <mxGeometry x="820" y="-1446" width="20" height="20" as="geometry" />
        </mxCell>
        <mxCell id="OrUkxoRG1ota5-fYZEzL-85" style="edgeStyle=orthogonalEdgeStyle;rounded=0;orthogonalLoop=1;jettySize=auto;html=1;curved=0;entryX=1;entryY=0;entryDx=0;entryDy=5;entryPerimeter=0;" parent="1" source="OrUkxoRG1ota5-fYZEzL-81" target="OrUkxoRG1ota5-fYZEzL-87" edge="1">
          <mxGeometry relative="1" as="geometry">
            <mxPoint x="1220" y="-1386" as="sourcePoint" />
            <mxPoint x="1050" y="-1386" as="targetPoint" />
            <Array as="points">
              <mxPoint x="1070" y="-1386" />
              <mxPoint x="1070" y="-1386" />
            </Array>
          </mxGeometry>
        </mxCell>
        <mxCell id="OrUkxoRG1ota5-fYZEzL-86" value="Согласование платежа (результат / сумма)" style="edgeLabel;html=1;align=center;verticalAlign=middle;resizable=0;points=[];" parent="OrUkxoRG1ota5-fYZEzL-85" vertex="1" connectable="0">
          <mxGeometry x="0.3189" y="-1" relative="1" as="geometry">
            <mxPoint x="-19" y="-10" as="offset" />
          </mxGeometry>
        </mxCell>
        <mxCell id="OrUkxoRG1ota5-fYZEzL-88" value="" style="shape=image;verticalLabelPosition=bottom;labelBackgroundColor=default;verticalAlign=top;aspect=fixed;imageAspect=0;image=https://assets-global.website-files.com/6064b31ff49a2d31e0493af1/64836bf8d0bac274cea41125_rabbitmq.svg;" parent="1" vertex="1">
          <mxGeometry x="880" y="-1370" width="20" height="20" as="geometry" />
        </mxCell>
        <mxCell id="OrUkxoRG1ota5-fYZEzL-89" style="edgeStyle=orthogonalEdgeStyle;rounded=0;orthogonalLoop=1;jettySize=auto;html=1;curved=0;exitX=1;exitY=1;exitDx=0;exitDy=-5;exitPerimeter=0;dashed=1;" parent="1" source="OrUkxoRG1ota5-fYZEzL-87" target="OrUkxoRG1ota5-fYZEzL-81" edge="1">
          <mxGeometry relative="1" as="geometry">
            <Array as="points">
              <mxPoint x="1070" y="-1372" />
              <mxPoint x="1070" y="-1372" />
            </Array>
          </mxGeometry>
        </mxCell>
        <mxCell id="OrUkxoRG1ota5-fYZEzL-90" value="Результат согласования платежа" style="edgeLabel;html=1;align=center;verticalAlign=middle;resizable=0;points=[];" parent="1" vertex="1" connectable="0">
          <mxGeometry x="791.0048704008146" y="-1364.0038228199087" as="geometry" />
        </mxCell>
        <mxCell id="OrUkxoRG1ota5-fYZEzL-92" value="" style="shape=image;verticalLabelPosition=bottom;labelBackgroundColor=default;verticalAlign=top;aspect=fixed;imageAspect=0;image=https://assets-global.website-files.com/6064b31ff49a2d31e0493af1/64836bf8d0bac274cea41125_rabbitmq.svg;" parent="1" vertex="1">
          <mxGeometry x="900" y="-1406" width="20" height="20" as="geometry" />
        </mxCell>
        <mxCell id="OrUkxoRG1ota5-fYZEzL-93" style="edgeStyle=orthogonalEdgeStyle;rounded=0;orthogonalLoop=1;jettySize=auto;html=1;curved=0;entryX=1;entryY=0;entryDx=0;entryDy=5;entryPerimeter=0;" parent="1" target="OrUkxoRG1ota5-fYZEzL-91" edge="1">
          <mxGeometry relative="1" as="geometry">
            <mxPoint x="1225" y="-1336" as="sourcePoint" />
            <mxPoint x="595" y="-1336" as="targetPoint" />
            <Array as="points">
              <mxPoint x="1225" y="-1341" />
            </Array>
          </mxGeometry>
        </mxCell>
        <mxCell id="OrUkxoRG1ota5-fYZEzL-94" value="Бронирование товара на складе" style="edgeLabel;html=1;align=center;verticalAlign=middle;resizable=0;points=[];" parent="OrUkxoRG1ota5-fYZEzL-93" vertex="1" connectable="0">
          <mxGeometry x="0.3189" y="-1" relative="1" as="geometry">
            <mxPoint x="32" y="-8" as="offset" />
          </mxGeometry>
        </mxCell>
        <mxCell id="OrUkxoRG1ota5-fYZEzL-95" value="" style="shape=image;verticalLabelPosition=bottom;labelBackgroundColor=default;verticalAlign=top;aspect=fixed;imageAspect=0;image=https://assets-global.website-files.com/6064b31ff49a2d31e0493af1/64836bf8d0bac274cea41125_rabbitmq.svg;" parent="1" vertex="1">
          <mxGeometry x="1160" y="-1364" width="20" height="20" as="geometry" />
        </mxCell>
        <mxCell id="OrUkxoRG1ota5-fYZEzL-98" style="edgeStyle=orthogonalEdgeStyle;rounded=0;orthogonalLoop=1;jettySize=auto;html=1;curved=0;exitX=1;exitY=1;exitDx=0;exitDy=-5;exitPerimeter=0;dashed=1;" parent="1" source="OrUkxoRG1ota5-fYZEzL-91" target="OrUkxoRG1ota5-fYZEzL-81" edge="1">
          <mxGeometry relative="1" as="geometry">
            <Array as="points">
              <mxPoint x="1160" y="-1327" />
              <mxPoint x="1160" y="-1327" />
            </Array>
          </mxGeometry>
        </mxCell>
        <mxCell id="OrUkxoRG1ota5-fYZEzL-99" value="Результат бронирования" style="edgeLabel;html=1;align=center;verticalAlign=middle;resizable=0;points=[];" parent="OrUkxoRG1ota5-fYZEzL-98" vertex="1" connectable="0">
          <mxGeometry x="0.1973" y="-1" relative="1" as="geometry">
            <mxPoint x="-23" y="7" as="offset" />
          </mxGeometry>
        </mxCell>
        <mxCell id="OrUkxoRG1ota5-fYZEzL-100" value="" style="shape=image;verticalLabelPosition=bottom;labelBackgroundColor=default;verticalAlign=top;aspect=fixed;imageAspect=0;image=https://assets-global.website-files.com/6064b31ff49a2d31e0493af1/64836bf8d0bac274cea41125_rabbitmq.svg;" parent="1" vertex="1">
          <mxGeometry x="1156" y="-1326" width="20" height="20" as="geometry" />
        </mxCell>
        <mxCell id="OrUkxoRG1ota5-fYZEzL-102" style="edgeStyle=orthogonalEdgeStyle;rounded=0;orthogonalLoop=1;jettySize=auto;html=1;curved=0;entryX=1;entryY=0;entryDx=0;entryDy=5;entryPerimeter=0;" parent="1" source="OrUkxoRG1ota5-fYZEzL-81" target="OrUkxoRG1ota5-fYZEzL-101" edge="1">
          <mxGeometry relative="1" as="geometry">
            <mxPoint x="1220" y="-1281" as="sourcePoint" />
            <mxPoint x="950" y="-1276" as="targetPoint" />
            <Array as="points">
              <mxPoint x="1190" y="-1281" />
              <mxPoint x="1190" y="-1281" />
            </Array>
          </mxGeometry>
        </mxCell>
        <mxCell id="OrUkxoRG1ota5-fYZEzL-103" value="&lt;font style=&quot;font-size: 10px;&quot;&gt;Запрос кейса на&lt;/font&gt;&lt;div style=&quot;font-size: 10px;&quot;&gt;&lt;font style=&quot;font-size: 10px;&quot;&gt;доставку&lt;/font&gt;&lt;/div&gt;" style="edgeLabel;html=1;align=center;verticalAlign=middle;resizable=0;points=[];" parent="OrUkxoRG1ota5-fYZEzL-102" vertex="1" connectable="0">
          <mxGeometry x="0.3189" y="-1" relative="1" as="geometry">
            <mxPoint x="8" y="-13" as="offset" />
          </mxGeometry>
        </mxCell>
        <mxCell id="OrUkxoRG1ota5-fYZEzL-104" value="" style="shape=image;verticalLabelPosition=bottom;labelBackgroundColor=default;verticalAlign=top;aspect=fixed;imageAspect=0;image=https://assets-global.website-files.com/6064b31ff49a2d31e0493af1/64836bf8d0bac274cea41125_rabbitmq.svg;" parent="1" vertex="1">
          <mxGeometry x="1180" y="-1304" width="20" height="20" as="geometry" />
        </mxCell>
        <mxCell id="OrUkxoRG1ota5-fYZEzL-105" style="edgeStyle=orthogonalEdgeStyle;rounded=0;orthogonalLoop=1;jettySize=auto;html=1;curved=0;exitX=1;exitY=1;exitDx=0;exitDy=-5;exitPerimeter=0;dashed=1;" parent="1" source="OrUkxoRG1ota5-fYZEzL-101" target="OrUkxoRG1ota5-fYZEzL-81" edge="1">
          <mxGeometry relative="1" as="geometry">
            <mxPoint x="1090" y="-1266" as="sourcePoint" />
            <mxPoint x="1220" y="-1266" as="targetPoint" />
            <Array as="points">
              <mxPoint x="1084" y="-1266" />
            </Array>
          </mxGeometry>
        </mxCell>
        <mxCell id="OrUkxoRG1ota5-fYZEzL-106" value="Результат&amp;nbsp;&lt;div&gt;создания кейса&lt;/div&gt;" style="edgeLabel;html=1;align=center;verticalAlign=middle;resizable=0;points=[];" parent="OrUkxoRG1ota5-fYZEzL-105" vertex="1" connectable="0">
          <mxGeometry x="0.1973" y="-1" relative="1" as="geometry">
            <mxPoint x="-38" y="15" as="offset" />
          </mxGeometry>
        </mxCell>
        <mxCell id="OrUkxoRG1ota5-fYZEzL-107" value="" style="shape=image;verticalLabelPosition=bottom;labelBackgroundColor=default;verticalAlign=top;aspect=fixed;imageAspect=0;image=https://assets-global.website-files.com/6064b31ff49a2d31e0493af1/64836bf8d0bac274cea41125_rabbitmq.svg;" parent="1" vertex="1">
          <mxGeometry x="1170" y="-1264" width="20" height="20" as="geometry" />
        </mxCell>
        <mxCell id="OrUkxoRG1ota5-fYZEzL-109" style="edgeStyle=orthogonalEdgeStyle;rounded=0;orthogonalLoop=1;jettySize=auto;html=1;curved=0;entryX=1;entryY=0;entryDx=0;entryDy=5;entryPerimeter=0;" parent="1" target="OrUkxoRG1ota5-fYZEzL-108" edge="1">
          <mxGeometry relative="1" as="geometry">
            <mxPoint x="1225" y="-1211" as="sourcePoint" />
            <mxPoint x="595" y="-1211" as="targetPoint" />
            <Array as="points" />
          </mxGeometry>
        </mxCell>
        <mxCell id="OrUkxoRG1ota5-fYZEzL-110" value="Результат согласования заказа" style="edgeLabel;html=1;align=center;verticalAlign=middle;resizable=0;points=[];" parent="OrUkxoRG1ota5-fYZEzL-109" vertex="1" connectable="0">
          <mxGeometry x="0.3189" y="-1" relative="1" as="geometry">
            <mxPoint x="103" y="-12" as="offset" />
          </mxGeometry>
        </mxCell>
        <mxCell id="OrUkxoRG1ota5-fYZEzL-111" style="edgeStyle=orthogonalEdgeStyle;rounded=0;orthogonalLoop=1;jettySize=auto;html=1;curved=0;exitX=1;exitY=1;exitDx=0;exitDy=-5;exitPerimeter=0;dashed=1;" parent="1" source="OrUkxoRG1ota5-fYZEzL-108" edge="1">
          <mxGeometry relative="1" as="geometry">
            <mxPoint x="595" y="-1196" as="sourcePoint" />
            <mxPoint x="1225" y="-1196" as="targetPoint" />
            <Array as="points">
              <mxPoint x="240" y="-1196" />
            </Array>
          </mxGeometry>
        </mxCell>
        <mxCell id="OrUkxoRG1ota5-fYZEzL-112" value="" style="shape=image;verticalLabelPosition=bottom;labelBackgroundColor=default;verticalAlign=top;aspect=fixed;imageAspect=0;image=https://assets-global.website-files.com/6064b31ff49a2d31e0493af1/64836bf8d0bac274cea41125_rabbitmq.svg;" parent="1" vertex="1">
          <mxGeometry x="760" y="-1236" width="20" height="20" as="geometry" />
        </mxCell>
        <mxCell id="OrUkxoRG1ota5-fYZEzL-117" value="" style="html=1;points=[[0,0,0,0,5],[0,0.39,0,0,0],[0,1,0,0,-5],[1,0,0,0,5],[1,0.19,0,0,0],[1,0.81,0,0,0],[1,1,0,0,-5]];perimeter=orthogonalPerimeter;outlineConnect=0;targetShapes=umlLifeline;portConstraint=eastwest;newEdgeStyle={&quot;curved&quot;:0,&quot;rounded&quot;:0};" parent="1" vertex="1">
          <mxGeometry x="1405" y="-1249" width="10" height="25" as="geometry" />
        </mxCell>
        <mxCell id="OrUkxoRG1ota5-fYZEzL-118" value="" style="html=1;points=[[0,0,0,0,5],[0,0.39,0,0,0],[0,1,0,0,-5],[1,0,0,0,5],[1,0.5,0,0,0],[1,0.86,0,0,0],[1,1,0,0,-5]];perimeter=orthogonalPerimeter;outlineConnect=0;targetShapes=umlLifeline;portConstraint=eastwest;newEdgeStyle={&quot;curved&quot;:0,&quot;rounded&quot;:0};" parent="1" vertex="1">
          <mxGeometry x="1536" y="-1247" width="10" height="20" as="geometry" />
        </mxCell>
        <mxCell id="OrUkxoRG1ota5-fYZEzL-119" value="Отправка письма" style="html=1;verticalAlign=bottom;endArrow=block;curved=0;rounded=0;entryX=0;entryY=0;entryDx=0;entryDy=5;entryPerimeter=0;exitX=1;exitY=0.19;exitDx=0;exitDy=0;exitPerimeter=0;" parent="1" edge="1">
          <mxGeometry width="80" relative="1" as="geometry">
            <mxPoint x="1415" y="-1241.2499999999998" as="sourcePoint" />
            <mxPoint x="1536" y="-1241" as="targetPoint" />
          </mxGeometry>
        </mxCell>
        <mxCell id="OrUkxoRG1ota5-fYZEzL-120" value="Письмо отправлено" style="html=1;verticalAlign=bottom;endArrow=open;dashed=1;endSize=8;curved=0;rounded=0;exitX=0;exitY=1;exitDx=0;exitDy=-5;exitPerimeter=0;entryX=1;entryY=0.81;entryDx=0;entryDy=0;entryPerimeter=0;" parent="1" edge="1">
          <mxGeometry x="-0.0241" y="19" relative="1" as="geometry">
            <mxPoint x="1536" y="-1232" as="sourcePoint" />
            <mxPoint x="1415" y="-1231.75" as="targetPoint" />
            <mxPoint as="offset" />
          </mxGeometry>
        </mxCell>
        <mxCell id="OrUkxoRG1ota5-fYZEzL-121" style="edgeStyle=orthogonalEdgeStyle;rounded=0;orthogonalLoop=1;jettySize=auto;html=1;curved=0;exitX=0;exitY=0;exitDx=0;exitDy=5;exitPerimeter=0;startArrow=classic;startFill=1;endArrow=none;endFill=0;" parent="1" source="OrUkxoRG1ota5-fYZEzL-117" target="OrUkxoRG1ota5-fYZEzL-81" edge="1">
          <mxGeometry relative="1" as="geometry">
            <Array as="points">
              <mxPoint x="1270" y="-1244" />
              <mxPoint x="1270" y="-1244" />
            </Array>
          </mxGeometry>
        </mxCell>
        <mxCell id="OrUkxoRG1ota5-fYZEzL-126" value="Уведомление о&amp;nbsp;&lt;div&gt;согласовании заказа&lt;/div&gt;" style="edgeLabel;html=1;align=center;verticalAlign=middle;resizable=0;points=[];" parent="OrUkxoRG1ota5-fYZEzL-121" vertex="1" connectable="0">
          <mxGeometry x="0.0487" relative="1" as="geometry">
            <mxPoint x="-11" y="-16" as="offset" />
          </mxGeometry>
        </mxCell>
        <mxCell id="OrUkxoRG1ota5-fYZEzL-122" value="" style="html=1;verticalAlign=bottom;endArrow=open;dashed=1;endSize=8;curved=0;rounded=0;exitX=0;exitY=1;exitDx=0;exitDy=-5;exitPerimeter=0;" parent="1" source="OrUkxoRG1ota5-fYZEzL-117" edge="1">
          <mxGeometry x="-0.0241" y="19" relative="1" as="geometry">
            <mxPoint x="1400" y="-1229" as="sourcePoint" />
            <mxPoint x="1234.9985714285715" y="-1229" as="targetPoint" />
            <mxPoint as="offset" />
          </mxGeometry>
        </mxCell>
        <mxCell id="OrUkxoRG1ota5-fYZEzL-127" value="" style="shape=image;verticalLabelPosition=bottom;labelBackgroundColor=default;verticalAlign=top;aspect=fixed;imageAspect=0;image=https://assets-global.website-files.com/6064b31ff49a2d31e0493af1/64836bf8d0bac274cea41125_rabbitmq.svg;" parent="1" vertex="1">
          <mxGeometry x="1360" y="-1267" width="20" height="20" as="geometry" />
        </mxCell>
        <mxCell id="OrUkxoRG1ota5-fYZEzL-129" value="" style="html=1;points=[[0,0.04,0,0,0],[0,0.96,0,0,0],[1,0,0,0,5],[1,0.11,0,0,0],[1,0.28,0,0,0],[1,1,0,0,-5]];perimeter=orthogonalPerimeter;outlineConnect=0;targetShapes=umlLifeline;portConstraint=eastwest;newEdgeStyle={&quot;curved&quot;:0,&quot;rounded&quot;:0};" parent="1" vertex="1">
          <mxGeometry x="230" y="-1132" width="10" height="44" as="geometry" />
        </mxCell>
        <mxCell id="OrUkxoRG1ota5-fYZEzL-130" value="" style="html=1;points=[[0,0,0,0,5],[0,1,0,0,-5],[1,0,0,0,5],[1,1,0,0,-5]];perimeter=orthogonalPerimeter;outlineConnect=0;targetShapes=umlLifeline;portConstraint=eastwest;newEdgeStyle={&quot;curved&quot;:0,&quot;rounded&quot;:0};" parent="1" vertex="1">
          <mxGeometry x="405" y="-1125" width="10" height="28" as="geometry" />
        </mxCell>
        <mxCell id="OrUkxoRG1ota5-fYZEzL-131" value="Получить статус заказа" style="html=1;verticalAlign=bottom;endArrow=block;curved=0;rounded=0;entryX=0;entryY=0.04;entryDx=0;entryDy=0;entryPerimeter=0;" parent="1" edge="1">
          <mxGeometry width="80" relative="1" as="geometry">
            <mxPoint x="68" y="-1127" as="sourcePoint" />
            <mxPoint x="230" y="-1127.24" as="targetPoint" />
            <mxPoint as="offset" />
          </mxGeometry>
        </mxCell>
        <mxCell id="OrUkxoRG1ota5-fYZEzL-132" value="Статус заказа" style="html=1;verticalAlign=bottom;endArrow=open;dashed=1;endSize=8;curved=0;rounded=0;exitX=-0.152;exitY=0.899;exitDx=0;exitDy=0;exitPerimeter=0;" parent="1" source="OrUkxoRG1ota5-fYZEzL-129" edge="1">
          <mxGeometry relative="1" as="geometry">
            <mxPoint x="215" y="-962" as="sourcePoint" />
            <mxPoint x="69" y="-1092" as="targetPoint" />
          </mxGeometry>
        </mxCell>
        <mxCell id="OrUkxoRG1ota5-fYZEzL-133" value="Авторизован?" style="html=1;verticalAlign=bottom;endArrow=block;curved=0;rounded=0;exitX=1;exitY=0.28;exitDx=0;exitDy=0;exitPerimeter=0;entryX=0;entryY=0;entryDx=0;entryDy=5;entryPerimeter=0;" parent="1" source="OrUkxoRG1ota5-fYZEzL-129" target="OrUkxoRG1ota5-fYZEzL-130" edge="1">
          <mxGeometry width="80" relative="1" as="geometry">
            <mxPoint x="485" y="-1109" as="sourcePoint" />
            <mxPoint x="565" y="-1109" as="targetPoint" />
          </mxGeometry>
        </mxCell>
        <mxCell id="OrUkxoRG1ota5-fYZEzL-134" value="Да" style="html=1;verticalAlign=bottom;endArrow=open;dashed=1;endSize=8;curved=0;rounded=0;exitX=0;exitY=1;exitDx=0;exitDy=-5;exitPerimeter=0;" parent="1" source="OrUkxoRG1ota5-fYZEzL-130" target="OrUkxoRG1ota5-fYZEzL-129" edge="1">
          <mxGeometry relative="1" as="geometry">
            <mxPoint x="335" y="-1049" as="sourcePoint" />
            <mxPoint x="255" y="-1049" as="targetPoint" />
          </mxGeometry>
        </mxCell>
        <mxCell id="OrUkxoRG1ota5-fYZEzL-135" value="opt" style="shape=umlFrame;whiteSpace=wrap;html=1;pointerEvents=0;width=60;height=20;" parent="1" vertex="1">
          <mxGeometry x="40" y="-1166" width="430" height="100" as="geometry" />
        </mxCell>
      </root>
    </mxGraphModel>
  </diagram>
  <diagram name="Seq2" id="kqcse4myF4l58nfRhqz-">
    <mxGraphModel dx="1434" dy="3238" grid="1" gridSize="10" guides="1" tooltips="1" connect="1" arrows="1" fold="1" page="1" pageScale="1" pageWidth="827" pageHeight="1169" background="#ffffff" math="0" shadow="1">
      <root>
        <mxCell id="GXxS-Jhg-S2puyxuL7Q4-0" />
        <mxCell id="GXxS-Jhg-S2puyxuL7Q4-1" parent="GXxS-Jhg-S2puyxuL7Q4-0" />
        <mxCell id="1chfQmVMfGHtRiW_yFSi-0" value="&lt;b&gt;Staff/&lt;br&gt;Browser&lt;/b&gt;" style="shape=umlLifeline;perimeter=lifelinePerimeter;whiteSpace=wrap;html=1;container=1;dropTarget=0;collapsible=0;recursiveResize=0;outlineConnect=0;portConstraint=eastwest;newEdgeStyle={&quot;curved&quot;:0,&quot;rounded&quot;:0};size=80;" parent="GXxS-Jhg-S2puyxuL7Q4-1" vertex="1">
          <mxGeometry x="14" y="-2290" width="100" height="530" as="geometry" />
        </mxCell>
        <mxCell id="1chfQmVMfGHtRiW_yFSi-1" value="" style="html=1;points=[[0,0,0,0,5],[0,1,0,0,-5],[1,0,0,0,5],[1,1,0,0,-5]];perimeter=orthogonalPerimeter;outlineConnect=0;targetShapes=umlLifeline;portConstraint=eastwest;newEdgeStyle={&quot;curved&quot;:0,&quot;rounded&quot;:0};" parent="1chfQmVMfGHtRiW_yFSi-0" vertex="1">
          <mxGeometry x="45" y="174" width="10" height="70" as="geometry" />
        </mxCell>
        <mxCell id="luZkrgG8UHkhIQqg-aGd-2" value="" style="html=1;points=[[0,0,0,0,5],[0,1,0,0,-5],[1,0,0,0,5],[1,1,0,0,-5]];perimeter=orthogonalPerimeter;outlineConnect=0;targetShapes=umlLifeline;portConstraint=eastwest;newEdgeStyle={&quot;curved&quot;:0,&quot;rounded&quot;:0};" parent="1chfQmVMfGHtRiW_yFSi-0" vertex="1">
          <mxGeometry x="45" y="344" width="10" height="80" as="geometry" />
        </mxCell>
        <mxCell id="1chfQmVMfGHtRiW_yFSi-5" value="&lt;h3 style=&quot;border-color: var(--border-color);&quot;&gt;notification&lt;/h3&gt;&lt;font style=&quot;border-color: var(--border-color); font-size: 11px;&quot;&gt;система уведомлений&lt;/font&gt;" style="shape=umlLifeline;perimeter=lifelinePerimeter;whiteSpace=wrap;html=1;container=1;dropTarget=0;collapsible=0;recursiveResize=0;outlineConnect=0;portConstraint=eastwest;newEdgeStyle={&quot;curved&quot;:0,&quot;rounded&quot;:0};size=80;" parent="GXxS-Jhg-S2puyxuL7Q4-1" vertex="1">
          <mxGeometry x="540" y="-2290" width="100" height="530" as="geometry" />
        </mxCell>
        <mxCell id="-CtvcmlkKSr5y_j8_0VH-9" value="" style="html=1;points=[[0,0,0,0,5],[0,1,0,0,-5],[1,0,0,0,5],[1,1,0,0,-5]];perimeter=orthogonalPerimeter;outlineConnect=0;targetShapes=umlLifeline;portConstraint=eastwest;newEdgeStyle={&quot;curved&quot;:0,&quot;rounded&quot;:0};" parent="1chfQmVMfGHtRiW_yFSi-5" vertex="1">
          <mxGeometry x="45" y="364" width="10" height="40" as="geometry" />
        </mxCell>
        <mxCell id="1chfQmVMfGHtRiW_yFSi-7" value="&lt;h3 style=&quot;border-color: var(--border-color);&quot;&gt;smtp&lt;/h3&gt;&lt;h3 style=&quot;border-color: var(--border-color);&quot;&gt;&lt;font style=&quot;border-color: var(--border-color); font-weight: 400; font-size: 11px;&quot;&gt;почтовый сервис&amp;nbsp;&lt;/font&gt;&lt;br&gt;&lt;/h3&gt;" style="shape=umlLifeline;perimeter=lifelinePerimeter;whiteSpace=wrap;html=1;container=1;dropTarget=0;collapsible=0;recursiveResize=0;outlineConnect=0;portConstraint=eastwest;newEdgeStyle={&quot;curved&quot;:0,&quot;rounded&quot;:0};size=80;fillColor=#E6E6E6;" parent="GXxS-Jhg-S2puyxuL7Q4-1" vertex="1">
          <mxGeometry x="710" y="-2290" width="100" height="530" as="geometry" />
        </mxCell>
        <mxCell id="-CtvcmlkKSr5y_j8_0VH-10" value="" style="html=1;points=[[0,0,0,0,5],[0,1,0,0,-5],[1,0,0,0,5],[1,1,0,0,-5]];perimeter=orthogonalPerimeter;outlineConnect=0;targetShapes=umlLifeline;portConstraint=eastwest;newEdgeStyle={&quot;curved&quot;:0,&quot;rounded&quot;:0};" parent="1chfQmVMfGHtRiW_yFSi-7" vertex="1">
          <mxGeometry x="45" y="367" width="10" height="30" as="geometry" />
        </mxCell>
        <mxCell id="1chfQmVMfGHtRiW_yFSi-9" value="&lt;h3 style=&quot;border-color: var(--border-color);&quot;&gt;store&lt;/h3&gt;&lt;font style=&quot;border-color: var(--border-color); font-size: 11px;&quot;&gt;сервис склада&lt;/font&gt;" style="shape=umlLifeline;perimeter=lifelinePerimeter;whiteSpace=wrap;html=1;container=1;dropTarget=0;collapsible=0;recursiveResize=0;outlineConnect=0;portConstraint=eastwest;newEdgeStyle={&quot;curved&quot;:0,&quot;rounded&quot;:0};size=80;" parent="GXxS-Jhg-S2puyxuL7Q4-1" vertex="1">
          <mxGeometry x="180" y="-2290" width="100" height="530" as="geometry" />
        </mxCell>
        <mxCell id="luZkrgG8UHkhIQqg-aGd-0" value="" style="html=1;points=[[0,0,0,0,5],[0,1,0,0,-5],[1,0,0,0,5],[1,1,0,0,-5]];perimeter=orthogonalPerimeter;outlineConnect=0;targetShapes=umlLifeline;portConstraint=eastwest;newEdgeStyle={&quot;curved&quot;:0,&quot;rounded&quot;:0};" parent="1chfQmVMfGHtRiW_yFSi-9" vertex="1">
          <mxGeometry x="45" y="179" width="10" height="60" as="geometry" />
        </mxCell>
        <mxCell id="1chfQmVMfGHtRiW_yFSi-11" value="&lt;h3 style=&quot;border-color: var(--border-color);&quot;&gt;delivery&lt;/h3&gt;&lt;font style=&quot;border-color: var(--border-color); font-size: 11px;&quot;&gt;сервис доставки&lt;/font&gt;" style="shape=umlLifeline;perimeter=lifelinePerimeter;whiteSpace=wrap;html=1;container=1;dropTarget=0;collapsible=0;recursiveResize=0;outlineConnect=0;portConstraint=eastwest;newEdgeStyle={&quot;curved&quot;:0,&quot;rounded&quot;:0};size=80;" parent="GXxS-Jhg-S2puyxuL7Q4-1" vertex="1">
          <mxGeometry x="364" y="-2290" width="100" height="530" as="geometry" />
        </mxCell>
        <mxCell id="luZkrgG8UHkhIQqg-aGd-1" value="" style="html=1;points=[[0,0,0,0,5],[0,1,0,0,-5],[1,0,0,0,5],[1,1,0,0,-5]];perimeter=orthogonalPerimeter;outlineConnect=0;targetShapes=umlLifeline;portConstraint=eastwest;newEdgeStyle={&quot;curved&quot;:0,&quot;rounded&quot;:0};" parent="1chfQmVMfGHtRiW_yFSi-11" vertex="1">
          <mxGeometry x="45" y="187.75" width="10" height="42.5" as="geometry" />
        </mxCell>
        <mxCell id="luZkrgG8UHkhIQqg-aGd-5" value="" style="html=1;points=[[0,0,0,0,5],[0,1,0,0,-5],[1,0,0,0,5],[1,1,0,0,-5]];perimeter=orthogonalPerimeter;outlineConnect=0;targetShapes=umlLifeline;portConstraint=eastwest;newEdgeStyle={&quot;curved&quot;:0,&quot;rounded&quot;:0};" parent="1chfQmVMfGHtRiW_yFSi-11" vertex="1">
          <mxGeometry x="45" y="354" width="10" height="60" as="geometry" />
        </mxCell>
        <mxCell id="luZkrgG8UHkhIQqg-aGd-3" style="edgeStyle=orthogonalEdgeStyle;rounded=0;orthogonalLoop=1;jettySize=auto;html=1;curved=0;exitX=1;exitY=0;exitDx=0;exitDy=5;exitPerimeter=0;" parent="GXxS-Jhg-S2puyxuL7Q4-1" target="luZkrgG8UHkhIQqg-aGd-0" edge="1">
          <mxGeometry relative="1" as="geometry">
            <mxPoint x="69" y="-2107" as="sourcePoint" />
            <mxPoint x="229.5" y="-2107" as="targetPoint" />
            <Array as="points">
              <mxPoint x="180" y="-2107" />
              <mxPoint x="180" y="-2107" />
            </Array>
          </mxGeometry>
        </mxCell>
        <mxCell id="-CtvcmlkKSr5y_j8_0VH-1" value="Заказ укомплектован" style="edgeLabel;html=1;align=center;verticalAlign=middle;resizable=0;points=[];" parent="luZkrgG8UHkhIQqg-aGd-3" vertex="1" connectable="0">
          <mxGeometry x="-0.1038" y="1" relative="1" as="geometry">
            <mxPoint x="11" y="-8" as="offset" />
          </mxGeometry>
        </mxCell>
        <mxCell id="luZkrgG8UHkhIQqg-aGd-4" style="edgeStyle=orthogonalEdgeStyle;rounded=0;orthogonalLoop=1;jettySize=auto;html=1;curved=0;exitX=0;exitY=1;exitDx=0;exitDy=-5;exitPerimeter=0;dashed=1;" parent="GXxS-Jhg-S2puyxuL7Q4-1" source="luZkrgG8UHkhIQqg-aGd-0" edge="1">
          <mxGeometry relative="1" as="geometry">
            <mxPoint x="70" y="-2056" as="targetPoint" />
            <Array as="points">
              <mxPoint x="110" y="-2056" />
              <mxPoint x="110" y="-2056" />
            </Array>
          </mxGeometry>
        </mxCell>
        <mxCell id="-CtvcmlkKSr5y_j8_0VH-4" value="OK" style="edgeLabel;html=1;align=center;verticalAlign=middle;resizable=0;points=[];" parent="luZkrgG8UHkhIQqg-aGd-4" vertex="1" connectable="0">
          <mxGeometry x="-0.055" y="2" relative="1" as="geometry">
            <mxPoint y="-10" as="offset" />
          </mxGeometry>
        </mxCell>
        <mxCell id="luZkrgG8UHkhIQqg-aGd-6" style="edgeStyle=orthogonalEdgeStyle;rounded=0;orthogonalLoop=1;jettySize=auto;html=1;curved=0;entryX=0;entryY=0;entryDx=0;entryDy=5;entryPerimeter=0;" parent="GXxS-Jhg-S2puyxuL7Q4-1" source="luZkrgG8UHkhIQqg-aGd-0" target="luZkrgG8UHkhIQqg-aGd-1" edge="1">
          <mxGeometry relative="1" as="geometry">
            <mxPoint x="240" y="-2097" as="sourcePoint" />
            <mxPoint x="396" y="-2097" as="targetPoint" />
            <Array as="points">
              <mxPoint x="322" y="-2097" />
            </Array>
          </mxGeometry>
        </mxCell>
        <mxCell id="-CtvcmlkKSr5y_j8_0VH-2" value="Заберите заказ на складе" style="edgeLabel;html=1;align=center;verticalAlign=middle;resizable=0;points=[];" parent="luZkrgG8UHkhIQqg-aGd-6" vertex="1" connectable="0">
          <mxGeometry x="-0.2162" y="-1" relative="1" as="geometry">
            <mxPoint x="4" y="-10" as="offset" />
          </mxGeometry>
        </mxCell>
        <mxCell id="luZkrgG8UHkhIQqg-aGd-7" style="edgeStyle=orthogonalEdgeStyle;rounded=0;orthogonalLoop=1;jettySize=auto;html=1;curved=0;exitX=0;exitY=1;exitDx=0;exitDy=-5;exitPerimeter=0;dashed=1;" parent="GXxS-Jhg-S2puyxuL7Q4-1" source="luZkrgG8UHkhIQqg-aGd-1" target="luZkrgG8UHkhIQqg-aGd-0" edge="1">
          <mxGeometry relative="1" as="geometry">
            <mxPoint x="395" y="-2066" as="sourcePoint" />
            <mxPoint x="240" y="-2066" as="targetPoint" />
            <Array as="points">
              <mxPoint x="280" y="-2065" />
              <mxPoint x="280" y="-2065" />
            </Array>
          </mxGeometry>
        </mxCell>
        <mxCell id="-CtvcmlkKSr5y_j8_0VH-3" value="ОК" style="edgeLabel;html=1;align=center;verticalAlign=middle;resizable=0;points=[];" parent="luZkrgG8UHkhIQqg-aGd-7" vertex="1" connectable="0">
          <mxGeometry x="0.2217" relative="1" as="geometry">
            <mxPoint x="17" y="-8" as="offset" />
          </mxGeometry>
        </mxCell>
        <mxCell id="-CtvcmlkKSr5y_j8_0VH-0" value="" style="shape=image;verticalLabelPosition=bottom;labelBackgroundColor=default;verticalAlign=top;aspect=fixed;imageAspect=0;image=https://assets-global.website-files.com/6064b31ff49a2d31e0493af1/64836bf8d0bac274cea41125_rabbitmq.svg;" parent="GXxS-Jhg-S2puyxuL7Q4-1" vertex="1">
          <mxGeometry x="373" y="-2116" width="20" height="20" as="geometry" />
        </mxCell>
        <mxCell id="-CtvcmlkKSr5y_j8_0VH-5" style="edgeStyle=orthogonalEdgeStyle;rounded=0;orthogonalLoop=1;jettySize=auto;html=1;curved=0;entryX=0;entryY=0;entryDx=0;entryDy=5;entryPerimeter=0;" parent="GXxS-Jhg-S2puyxuL7Q4-1" source="luZkrgG8UHkhIQqg-aGd-2" target="luZkrgG8UHkhIQqg-aGd-5" edge="1">
          <mxGeometry relative="1" as="geometry">
            <mxPoint x="70" y="-1936" as="sourcePoint" />
            <mxPoint x="235" y="-1926" as="targetPoint" />
            <Array as="points">
              <mxPoint x="160" y="-1931" />
              <mxPoint x="160" y="-1931" />
            </Array>
          </mxGeometry>
        </mxCell>
        <mxCell id="-CtvcmlkKSr5y_j8_0VH-6" value="Скоро произойдет доставка / прибытие на пункт выдачи" style="edgeLabel;html=1;align=center;verticalAlign=middle;resizable=0;points=[];" parent="-CtvcmlkKSr5y_j8_0VH-5" vertex="1" connectable="0">
          <mxGeometry x="-0.1038" y="1" relative="1" as="geometry">
            <mxPoint x="11" y="-8" as="offset" />
          </mxGeometry>
        </mxCell>
        <mxCell id="-CtvcmlkKSr5y_j8_0VH-7" style="edgeStyle=orthogonalEdgeStyle;rounded=0;orthogonalLoop=1;jettySize=auto;html=1;curved=0;exitX=0;exitY=1;exitDx=0;exitDy=-5;exitPerimeter=0;dashed=1;" parent="GXxS-Jhg-S2puyxuL7Q4-1" source="luZkrgG8UHkhIQqg-aGd-5" target="luZkrgG8UHkhIQqg-aGd-2" edge="1">
          <mxGeometry relative="1" as="geometry">
            <mxPoint x="393" y="-1876" as="sourcePoint" />
            <mxPoint x="70" y="-1876" as="targetPoint" />
            <Array as="points">
              <mxPoint x="150" y="-1881" />
              <mxPoint x="150" y="-1881" />
            </Array>
          </mxGeometry>
        </mxCell>
        <mxCell id="-CtvcmlkKSr5y_j8_0VH-8" value="OK" style="edgeLabel;html=1;align=center;verticalAlign=middle;resizable=0;points=[];" parent="-CtvcmlkKSr5y_j8_0VH-7" vertex="1" connectable="0">
          <mxGeometry x="-0.055" y="2" relative="1" as="geometry">
            <mxPoint y="-10" as="offset" />
          </mxGeometry>
        </mxCell>
        <mxCell id="-CtvcmlkKSr5y_j8_0VH-11" style="edgeStyle=orthogonalEdgeStyle;rounded=0;orthogonalLoop=1;jettySize=auto;html=1;curved=0;entryX=0;entryY=0;entryDx=0;entryDy=5;entryPerimeter=0;" parent="GXxS-Jhg-S2puyxuL7Q4-1" target="-CtvcmlkKSr5y_j8_0VH-9" edge="1">
          <mxGeometry relative="1" as="geometry">
            <mxPoint x="420" y="-1921" as="sourcePoint" />
            <mxPoint x="760" y="-1921" as="targetPoint" />
            <Array as="points" />
          </mxGeometry>
        </mxCell>
        <mxCell id="-CtvcmlkKSr5y_j8_0VH-12" value="Уведомление о доставке&amp;nbsp;" style="edgeLabel;html=1;align=center;verticalAlign=middle;resizable=0;points=[];" parent="-CtvcmlkKSr5y_j8_0VH-11" vertex="1" connectable="0">
          <mxGeometry x="-0.1038" y="1" relative="1" as="geometry">
            <mxPoint x="-9" y="-8" as="offset" />
          </mxGeometry>
        </mxCell>
        <mxCell id="-CtvcmlkKSr5y_j8_0VH-13" value="" style="shape=image;verticalLabelPosition=bottom;labelBackgroundColor=default;verticalAlign=top;aspect=fixed;imageAspect=0;image=https://assets-global.website-files.com/6064b31ff49a2d31e0493af1/64836bf8d0bac274cea41125_rabbitmq.svg;" parent="GXxS-Jhg-S2puyxuL7Q4-1" vertex="1">
          <mxGeometry x="550" y="-1943" width="20" height="20" as="geometry" />
        </mxCell>
        <mxCell id="-CtvcmlkKSr5y_j8_0VH-16" style="edgeStyle=orthogonalEdgeStyle;rounded=0;orthogonalLoop=1;jettySize=auto;html=1;curved=0;" parent="GXxS-Jhg-S2puyxuL7Q4-1" edge="1">
          <mxGeometry relative="1" as="geometry">
            <mxPoint x="595" y="-1915" as="sourcePoint" />
            <mxPoint x="755" y="-1917" as="targetPoint" />
            <Array as="points">
              <mxPoint x="595" y="-1916" />
              <mxPoint x="755" y="-1916" />
            </Array>
          </mxGeometry>
        </mxCell>
        <mxCell id="-CtvcmlkKSr5y_j8_0VH-17" value="Отправка почты" style="edgeLabel;html=1;align=center;verticalAlign=middle;resizable=0;points=[];" parent="-CtvcmlkKSr5y_j8_0VH-16" vertex="1" connectable="0">
          <mxGeometry x="-0.1038" y="1" relative="1" as="geometry">
            <mxPoint x="13" y="-9" as="offset" />
          </mxGeometry>
        </mxCell>
        <mxCell id="-CtvcmlkKSr5y_j8_0VH-18" style="edgeStyle=orthogonalEdgeStyle;rounded=0;orthogonalLoop=1;jettySize=auto;html=1;curved=0;dashed=1;exitX=0;exitY=1;exitDx=0;exitDy=-5;exitPerimeter=0;" parent="GXxS-Jhg-S2puyxuL7Q4-1" source="-CtvcmlkKSr5y_j8_0VH-10" target="-CtvcmlkKSr5y_j8_0VH-9" edge="1">
          <mxGeometry relative="1" as="geometry">
            <mxPoint x="750" y="-1896" as="sourcePoint" />
            <mxPoint x="600" y="-1896" as="targetPoint" />
            <Array as="points">
              <mxPoint x="630" y="-1898" />
              <mxPoint x="630" y="-1898" />
            </Array>
          </mxGeometry>
        </mxCell>
        <mxCell id="-CtvcmlkKSr5y_j8_0VH-19" value="ОК" style="edgeLabel;html=1;align=center;verticalAlign=middle;resizable=0;points=[];" parent="-CtvcmlkKSr5y_j8_0VH-18" vertex="1" connectable="0">
          <mxGeometry x="0.2217" relative="1" as="geometry">
            <mxPoint x="17" y="-8" as="offset" />
          </mxGeometry>
        </mxCell>
        <mxCell id="-CtvcmlkKSr5y_j8_0VH-20" style="edgeStyle=orthogonalEdgeStyle;rounded=0;orthogonalLoop=1;jettySize=auto;html=1;curved=0;dashed=1;exitX=0;exitY=1;exitDx=0;exitDy=-5;exitPerimeter=0;" parent="GXxS-Jhg-S2puyxuL7Q4-1" source="-CtvcmlkKSr5y_j8_0VH-9" edge="1">
          <mxGeometry relative="1" as="geometry">
            <mxPoint x="580" y="-1888" as="sourcePoint" />
            <mxPoint x="420" y="-1891" as="targetPoint" />
            <Array as="points">
              <mxPoint x="420" y="-1891" />
            </Array>
          </mxGeometry>
        </mxCell>
        <mxCell id="-CtvcmlkKSr5y_j8_0VH-21" value="ОК" style="edgeLabel;html=1;align=center;verticalAlign=middle;resizable=0;points=[];" parent="-CtvcmlkKSr5y_j8_0VH-20" vertex="1" connectable="0">
          <mxGeometry x="0.2217" relative="1" as="geometry">
            <mxPoint x="17" y="-8" as="offset" />
          </mxGeometry>
        </mxCell>
        <mxCell id="cCaw4G0DrirJduK1PGkL-0" value="обработка на складе" style="shape=umlFrame;whiteSpace=wrap;html=1;pointerEvents=0;width=91;height=30;" parent="GXxS-Jhg-S2puyxuL7Q4-1" vertex="1">
          <mxGeometry x="10" y="-2180" width="810" height="175" as="geometry" />
        </mxCell>
        <mxCell id="cCaw4G0DrirJduK1PGkL-1" value="обработка в доставке" style="shape=umlFrame;whiteSpace=wrap;html=1;pointerEvents=0;width=91;height=30;" parent="GXxS-Jhg-S2puyxuL7Q4-1" vertex="1">
          <mxGeometry x="10" y="-1990" width="810" height="175" as="geometry" />
        </mxCell>
      </root>
    </mxGraphModel>
  </diagram>
  <diagram id="Ka1y-rk4cqzLh63L3dfb" name="Seq3">
    <mxGraphModel dx="1434" dy="3238" grid="1" gridSize="10" guides="1" tooltips="1" connect="1" arrows="1" fold="1" page="1" pageScale="1" pageWidth="827" pageHeight="1169" background="#ffffff" math="0" shadow="1">
      <root>
        <mxCell id="0" />
        <mxCell id="1" parent="0" />
        <mxCell id="Vo9VUcNq0Erq066h-NFs-1" value="&lt;b&gt;Client/&lt;br&gt;Browser&lt;/b&gt;" style="shape=umlLifeline;perimeter=lifelinePerimeter;whiteSpace=wrap;html=1;container=1;dropTarget=0;collapsible=0;recursiveResize=0;outlineConnect=0;portConstraint=eastwest;newEdgeStyle={&quot;curved&quot;:0,&quot;rounded&quot;:0};size=80;" vertex="1" parent="1">
          <mxGeometry x="14" y="-2290" width="100" height="690" as="geometry" />
        </mxCell>
        <mxCell id="Vo9VUcNq0Erq066h-NFs-2" value="" style="html=1;points=[[0,0,0,0,5],[0,1,0,0,-5],[1,0,0,0,5],[1,1,0,0,-5]];perimeter=orthogonalPerimeter;outlineConnect=0;targetShapes=umlLifeline;portConstraint=eastwest;newEdgeStyle={&quot;curved&quot;:0,&quot;rounded&quot;:0};" vertex="1" parent="Vo9VUcNq0Erq066h-NFs-1">
          <mxGeometry x="45" y="145" width="10" height="115" as="geometry" />
        </mxCell>
        <mxCell id="Vo9VUcNq0Erq066h-NFs-3" value="" style="html=1;points=[[0,0,0,0,5],[0,1,0,0,-5],[1,0,0,0,5],[1,0.11,0,0,0],[1,0.28,0,0,0],[1,1,0,0,-5]];perimeter=orthogonalPerimeter;outlineConnect=0;targetShapes=umlLifeline;portConstraint=eastwest;newEdgeStyle={&quot;curved&quot;:0,&quot;rounded&quot;:0};" vertex="1" parent="Vo9VUcNq0Erq066h-NFs-1">
          <mxGeometry x="45" y="360" width="10" height="250" as="geometry" />
        </mxCell>
        <mxCell id="Vo9VUcNq0Erq066h-NFs-6" value="&lt;h3 style=&quot;border-color: var(--border-color);&quot;&gt;order&lt;/h3&gt;&lt;font style=&quot;border-color: var(--border-color); font-size: 11px;&quot;&gt;сервис заказов&lt;/font&gt;" style="shape=umlLifeline;perimeter=lifelinePerimeter;whiteSpace=wrap;html=1;container=1;dropTarget=0;collapsible=0;recursiveResize=0;outlineConnect=0;portConstraint=eastwest;newEdgeStyle={&quot;curved&quot;:0,&quot;rounded&quot;:0};size=80;" vertex="1" parent="1">
          <mxGeometry x="185" y="-2290" width="100" height="690" as="geometry" />
        </mxCell>
        <mxCell id="Vo9VUcNq0Erq066h-NFs-9" value="&lt;h3 style=&quot;border-color: var(--border-color);&quot;&gt;payment&lt;/h3&gt;&lt;font style=&quot;border-color: var(--border-color); font-size: 11px;&quot;&gt;сервис оплаты&lt;/font&gt;" style="shape=umlLifeline;perimeter=lifelinePerimeter;whiteSpace=wrap;html=1;container=1;dropTarget=0;collapsible=0;recursiveResize=0;outlineConnect=0;portConstraint=eastwest;newEdgeStyle={&quot;curved&quot;:0,&quot;rounded&quot;:0};size=80;" vertex="1" parent="1">
          <mxGeometry x="540" y="-2290" width="100" height="690" as="geometry" />
        </mxCell>
        <mxCell id="Vo9VUcNq0Erq066h-NFs-10" value="" style="html=1;points=[[0,0,0,0,5],[0,1,0,0,-5],[1,0,0,0,5],[1,1,0,0,-5]];perimeter=orthogonalPerimeter;outlineConnect=0;targetShapes=umlLifeline;portConstraint=eastwest;newEdgeStyle={&quot;curved&quot;:0,&quot;rounded&quot;:0};" vertex="1" parent="Vo9VUcNq0Erq066h-NFs-9">
          <mxGeometry x="45" y="157" width="10" height="43" as="geometry" />
        </mxCell>
        <mxCell id="Vo9VUcNq0Erq066h-NFs-11" value="" style="html=1;points=[[0,0,0,0,5],[0,0.39,0,0,0],[0,1,0,0,-5],[1,0,0,0,5],[1,0.5,0,0,0],[1,0.86,0,0,0],[1,1,0,0,-5]];perimeter=orthogonalPerimeter;outlineConnect=0;targetShapes=umlLifeline;portConstraint=eastwest;newEdgeStyle={&quot;curved&quot;:0,&quot;rounded&quot;:0};" vertex="1" parent="Vo9VUcNq0Erq066h-NFs-9">
          <mxGeometry x="45" y="410" width="10" height="80" as="geometry" />
        </mxCell>
        <mxCell id="Vo9VUcNq0Erq066h-NFs-15" value="&lt;h3 style=&quot;border-color: var(--border-color);&quot;&gt;auth&lt;/h3&gt;&lt;font style=&quot;border-color: var(--border-color); font-size: 11px;&quot;&gt;сервис аутентифкации&lt;/font&gt;" style="shape=umlLifeline;perimeter=lifelinePerimeter;whiteSpace=wrap;html=1;container=1;dropTarget=0;collapsible=0;recursiveResize=0;outlineConnect=0;portConstraint=eastwest;newEdgeStyle={&quot;curved&quot;:0,&quot;rounded&quot;:0};size=80;" vertex="1" parent="1">
          <mxGeometry x="360" y="-2290" width="100" height="690" as="geometry" />
        </mxCell>
        <mxCell id="Vo9VUcNq0Erq066h-NFs-16" value="" style="html=1;points=[[0,0,0,0,5],[0,1,0,0,-5],[1,0,0,0,5],[1,0.24,0,0,0],[1,0.74,0,0,0],[1,1,0,0,-5]];perimeter=orthogonalPerimeter;outlineConnect=0;targetShapes=umlLifeline;portConstraint=eastwest;newEdgeStyle={&quot;curved&quot;:0,&quot;rounded&quot;:0};" vertex="1" parent="Vo9VUcNq0Erq066h-NFs-15">
          <mxGeometry x="45" y="145" width="10" height="115" as="geometry" />
        </mxCell>
        <mxCell id="Vo9VUcNq0Erq066h-NFs-17" value="" style="html=1;points=[[0,0,0,0,5],[0,1,0,0,-5],[1,0,0,0,5],[1,1,0,0,-5]];perimeter=orthogonalPerimeter;outlineConnect=0;targetShapes=umlLifeline;portConstraint=eastwest;newEdgeStyle={&quot;curved&quot;:0,&quot;rounded&quot;:0};" vertex="1" parent="Vo9VUcNq0Erq066h-NFs-15">
          <mxGeometry x="45" y="361" width="10" height="27" as="geometry" />
        </mxCell>
        <mxCell id="Vo9VUcNq0Erq066h-NFs-18" value="" style="html=1;points=[[0,0,0,0,5],[0,1,0,0,-5],[1,0,0,0,5],[1,1,0,0,-5]];perimeter=orthogonalPerimeter;outlineConnect=0;targetShapes=umlLifeline;portConstraint=eastwest;newEdgeStyle={&quot;curved&quot;:0,&quot;rounded&quot;:0};" vertex="1" parent="Vo9VUcNq0Erq066h-NFs-15">
          <mxGeometry x="45" y="430" width="10" height="40" as="geometry" />
        </mxCell>
        <mxCell id="Vo9VUcNq0Erq066h-NFs-21" value="&lt;h3 style=&quot;border-color: var(--border-color);&quot;&gt;notification&lt;/h3&gt;&lt;font style=&quot;border-color: var(--border-color); font-size: 11px;&quot;&gt;система уведомлений&lt;/font&gt;" style="shape=umlLifeline;perimeter=lifelinePerimeter;whiteSpace=wrap;html=1;container=1;dropTarget=0;collapsible=0;recursiveResize=0;outlineConnect=0;portConstraint=eastwest;newEdgeStyle={&quot;curved&quot;:0,&quot;rounded&quot;:0};size=80;" vertex="1" parent="1">
          <mxGeometry x="1360" y="-2290" width="100" height="690" as="geometry" />
        </mxCell>
        <mxCell id="Vo9VUcNq0Erq066h-NFs-23" value="&lt;h3 style=&quot;border-color: var(--border-color);&quot;&gt;smtp&lt;/h3&gt;&lt;h3 style=&quot;border-color: var(--border-color);&quot;&gt;&lt;font style=&quot;border-color: var(--border-color); font-weight: 400; font-size: 11px;&quot;&gt;почтовый сервис&amp;nbsp;&lt;/font&gt;&lt;br&gt;&lt;/h3&gt;" style="shape=umlLifeline;perimeter=lifelinePerimeter;whiteSpace=wrap;html=1;container=1;dropTarget=0;collapsible=0;recursiveResize=0;outlineConnect=0;portConstraint=eastwest;newEdgeStyle={&quot;curved&quot;:0,&quot;rounded&quot;:0};size=80;fillColor=#E6E6E6;" vertex="1" parent="1">
          <mxGeometry x="1490" y="-2290" width="100" height="690" as="geometry" />
        </mxCell>
        <mxCell id="Vo9VUcNq0Erq066h-NFs-25" value="opt" style="shape=umlFrame;whiteSpace=wrap;html=1;pointerEvents=0;width=65;height=20;" vertex="1" parent="1">
          <mxGeometry x="40" y="-1960" width="400" height="70" as="geometry" />
        </mxCell>
        <mxCell id="Vo9VUcNq0Erq066h-NFs-26" value="Зарегистрировать нового пользователя" style="html=1;verticalAlign=bottom;endArrow=block;curved=0;rounded=0;exitX=1;exitY=0;exitDx=0;exitDy=5;exitPerimeter=0;entryX=0;entryY=0;entryDx=0;entryDy=5;entryPerimeter=0;" edge="1" parent="1" source="Vo9VUcNq0Erq066h-NFs-2" target="Vo9VUcNq0Erq066h-NFs-16">
          <mxGeometry width="80" relative="1" as="geometry">
            <mxPoint x="125" y="-2140" as="sourcePoint" />
            <mxPoint x="195" y="-2140" as="targetPoint" />
          </mxGeometry>
        </mxCell>
        <mxCell id="Vo9VUcNq0Erq066h-NFs-27" value="Открыть счет" style="html=1;verticalAlign=bottom;endArrow=block;curved=0;rounded=0;" edge="1" parent="1">
          <mxGeometry width="80" relative="1" as="geometry">
            <mxPoint x="416.0238095238095" y="-2124.4" as="sourcePoint" />
            <mxPoint x="586" y="-2124.4" as="targetPoint" />
          </mxGeometry>
        </mxCell>
        <mxCell id="Vo9VUcNq0Erq066h-NFs-28" value="" style="html=1;verticalAlign=bottom;endArrow=open;dashed=1;endSize=8;curved=0;rounded=0;exitX=0;exitY=1;exitDx=0;exitDy=-5;exitPerimeter=0;" edge="1" parent="1" source="Vo9VUcNq0Erq066h-NFs-10" target="Vo9VUcNq0Erq066h-NFs-16">
          <mxGeometry x="0.0087" relative="1" as="geometry">
            <mxPoint x="475" y="-2080" as="sourcePoint" />
            <mxPoint x="365" y="-2080" as="targetPoint" />
            <mxPoint as="offset" />
          </mxGeometry>
        </mxCell>
        <mxCell id="Vo9VUcNq0Erq066h-NFs-29" value="Результат регистрации" style="html=1;verticalAlign=bottom;endArrow=open;dashed=1;endSize=8;curved=0;rounded=0;entryX=1;entryY=1;entryDx=0;entryDy=-5;entryPerimeter=0;exitX=0;exitY=1;exitDx=0;exitDy=-5;exitPerimeter=0;" edge="1" parent="1" source="Vo9VUcNq0Erq066h-NFs-16" target="Vo9VUcNq0Erq066h-NFs-2">
          <mxGeometry x="0.0087" relative="1" as="geometry">
            <mxPoint x="350" y="-2060" as="sourcePoint" />
            <mxPoint x="125" y="-2060" as="targetPoint" />
            <mxPoint as="offset" />
          </mxGeometry>
        </mxCell>
        <mxCell id="Vo9VUcNq0Erq066h-NFs-30" value="Логин" style="html=1;verticalAlign=bottom;endArrow=block;curved=0;rounded=0;exitX=1;exitY=0;exitDx=0;exitDy=5;exitPerimeter=0;entryX=0;entryY=0;entryDx=0;entryDy=5;entryPerimeter=0;" edge="1" parent="1">
          <mxGeometry width="80" relative="1" as="geometry">
            <mxPoint x="69" y="-1928" as="sourcePoint" />
            <mxPoint x="405" y="-1927" as="targetPoint" />
          </mxGeometry>
        </mxCell>
        <mxCell id="Vo9VUcNq0Erq066h-NFs-31" value="OK" style="html=1;verticalAlign=bottom;endArrow=open;dashed=1;endSize=8;curved=0;rounded=0;exitX=0;exitY=1;exitDx=0;exitDy=-5;exitPerimeter=0;entryX=1;entryY=0.11;entryDx=0;entryDy=0;entryPerimeter=0;" edge="1" parent="1" source="Vo9VUcNq0Erq066h-NFs-17" target="Vo9VUcNq0Erq066h-NFs-3">
          <mxGeometry x="0.0087" relative="1" as="geometry">
            <mxPoint x="350" y="-1910.5" as="sourcePoint" />
            <mxPoint x="235" y="-1910.5" as="targetPoint" />
            <mxPoint as="offset" />
          </mxGeometry>
        </mxCell>
        <mxCell id="Vo9VUcNq0Erq066h-NFs-32" value="Кредитовать счет" style="html=1;verticalAlign=bottom;endArrow=block;curved=0;rounded=0;entryX=0;entryY=0;entryDx=0;entryDy=5;entryPerimeter=0;" edge="1" parent="1" source="Vo9VUcNq0Erq066h-NFs-3" target="Vo9VUcNq0Erq066h-NFs-11">
          <mxGeometry x="-0.1044" y="-16" width="80" relative="1" as="geometry">
            <mxPoint x="125" y="-1880" as="sourcePoint" />
            <mxPoint x="455" y="-1877" as="targetPoint" />
            <mxPoint as="offset" />
          </mxGeometry>
        </mxCell>
        <mxCell id="Vo9VUcNq0Erq066h-NFs-33" value="Авторизован?" style="html=1;verticalAlign=bottom;endArrow=block;curved=0;rounded=0;entryX=1;entryY=0;entryDx=0;entryDy=5;entryPerimeter=0;" edge="1" parent="1" source="Vo9VUcNq0Erq066h-NFs-11" target="Vo9VUcNq0Erq066h-NFs-18">
          <mxGeometry width="80" relative="1" as="geometry">
            <mxPoint x="464.5" y="-1860" as="sourcePoint" />
            <mxPoint x="355" y="-1860" as="targetPoint" />
          </mxGeometry>
        </mxCell>
        <mxCell id="Vo9VUcNq0Erq066h-NFs-34" value="Да" style="html=1;verticalAlign=bottom;endArrow=open;dashed=1;endSize=8;curved=0;rounded=0;exitX=1;exitY=1;exitDx=0;exitDy=-5;exitPerimeter=0;" edge="1" parent="1" source="Vo9VUcNq0Erq066h-NFs-18" target="Vo9VUcNq0Erq066h-NFs-11">
          <mxGeometry relative="1" as="geometry">
            <mxPoint x="355" y="-1820" as="sourcePoint" />
            <mxPoint x="445" y="-1820" as="targetPoint" />
          </mxGeometry>
        </mxCell>
        <mxCell id="Vo9VUcNq0Erq066h-NFs-35" value="Результат внешней оплаты" style="html=1;verticalAlign=bottom;endArrow=open;dashed=1;endSize=8;curved=0;rounded=0;exitX=0;exitY=1;exitDx=0;exitDy=-5;exitPerimeter=0;entryX=1;entryY=1;entryDx=0;entryDy=-5;entryPerimeter=0;" edge="1" parent="1" source="Vo9VUcNq0Erq066h-NFs-60" target="Vo9VUcNq0Erq066h-NFs-3">
          <mxGeometry x="0.2787" relative="1" as="geometry">
            <mxPoint x="765" y="-1695" as="sourcePoint" />
            <mxPoint x="69" y="-1695" as="targetPoint" />
            <mxPoint as="offset" />
          </mxGeometry>
        </mxCell>
        <mxCell id="Vo9VUcNq0Erq066h-NFs-50" value="регистрация" style="shape=umlFrame;whiteSpace=wrap;html=1;pointerEvents=0;width=91;height=30;" vertex="1" parent="1">
          <mxGeometry x="14" y="-2180" width="1586" height="175" as="geometry" />
        </mxCell>
        <mxCell id="Vo9VUcNq0Erq066h-NFs-51" value="" style="html=1;verticalAlign=bottom;endArrow=block;curved=0;rounded=0;entryX=0;entryY=0;entryDx=0;entryDy=5;entryPerimeter=0;" edge="1" parent="1" source="Vo9VUcNq0Erq066h-NFs-16" target="Vo9VUcNq0Erq066h-NFs-53">
          <mxGeometry width="80" relative="1" as="geometry">
            <mxPoint x="420" y="-2080" as="sourcePoint" />
            <mxPoint x="1209" y="-2079" as="targetPoint" />
          </mxGeometry>
        </mxCell>
        <mxCell id="Vo9VUcNq0Erq066h-NFs-52" value="Создать учетку" style="edgeLabel;html=1;align=center;verticalAlign=middle;resizable=0;points=[];" vertex="1" connectable="0" parent="Vo9VUcNq0Erq066h-NFs-51">
          <mxGeometry x="-0.0286" y="-1" relative="1" as="geometry">
            <mxPoint x="39" y="-12" as="offset" />
          </mxGeometry>
        </mxCell>
        <mxCell id="Vo9VUcNq0Erq066h-NFs-53" value="" style="html=1;points=[[0,0,0,0,5],[0,1,0,0,-5],[1,0,0,0,5],[1,1,0,0,-5]];perimeter=orthogonalPerimeter;outlineConnect=0;targetShapes=umlLifeline;portConstraint=eastwest;newEdgeStyle={&quot;curved&quot;:0,&quot;rounded&quot;:0};" vertex="1" parent="1">
          <mxGeometry x="1405" y="-2085" width="10" height="33" as="geometry" />
        </mxCell>
        <mxCell id="Vo9VUcNq0Erq066h-NFs-54" value="" style="html=1;verticalAlign=bottom;endArrow=open;dashed=1;endSize=8;curved=0;rounded=0;exitX=0;exitY=1;exitDx=0;exitDy=-5;exitPerimeter=0;entryX=1;entryY=0.74;entryDx=0;entryDy=0;entryPerimeter=0;" edge="1" parent="1" source="Vo9VUcNq0Erq066h-NFs-53" target="Vo9VUcNq0Erq066h-NFs-16">
          <mxGeometry x="-0.0714" relative="1" as="geometry">
            <mxPoint x="668" y="-2056" as="sourcePoint" />
            <mxPoint x="420" y="-2060" as="targetPoint" />
            <mxPoint as="offset" />
          </mxGeometry>
        </mxCell>
        <mxCell id="Vo9VUcNq0Erq066h-NFs-55" value="пополнение&lt;br&gt;кошелька" style="shape=umlFrame;whiteSpace=wrap;html=1;pointerEvents=0;width=91;height=30;" vertex="1" parent="1">
          <mxGeometry x="14" y="-1995" width="1586" height="325" as="geometry" />
        </mxCell>
        <mxCell id="Vo9VUcNq0Erq066h-NFs-57" value="" style="shape=image;verticalLabelPosition=bottom;labelBackgroundColor=default;verticalAlign=top;aspect=fixed;imageAspect=0;image=https://assets-global.website-files.com/6064b31ff49a2d31e0493af1/64836bf8d0bac274cea41125_rabbitmq.svg;" vertex="1" parent="1">
          <mxGeometry x="980" y="-2102.5" width="20" height="20" as="geometry" />
        </mxCell>
        <mxCell id="Vo9VUcNq0Erq066h-NFs-58" value="" style="shape=image;verticalLabelPosition=bottom;labelBackgroundColor=default;verticalAlign=top;aspect=fixed;imageAspect=0;image=https://assets-global.website-files.com/6064b31ff49a2d31e0493af1/64836bf8d0bac274cea41125_rabbitmq.svg;" vertex="1" parent="1">
          <mxGeometry x="536" y="-2145" width="20" height="20" as="geometry" />
        </mxCell>
        <mxCell id="Vo9VUcNq0Erq066h-NFs-59" value="&lt;h3 style=&quot;border-color: var(--border-color);&quot;&gt;bank-api&lt;/h3&gt;&lt;font style=&quot;border-color: var(--border-color); font-size: 11px;&quot;&gt;внешний интерфейс оплаты&lt;/font&gt;" style="shape=umlLifeline;perimeter=lifelinePerimeter;whiteSpace=wrap;html=1;container=1;dropTarget=0;collapsible=0;recursiveResize=0;outlineConnect=0;portConstraint=eastwest;newEdgeStyle={&quot;curved&quot;:0,&quot;rounded&quot;:0};size=80;fillColor=#E6E6E6;" vertex="1" parent="1">
          <mxGeometry x="720" y="-2290" width="100" height="690" as="geometry" />
        </mxCell>
        <mxCell id="Vo9VUcNq0Erq066h-NFs-60" value="" style="html=1;points=[[0,0,0,0,5],[0,1,0,0,-5],[1,0,0,0,5],[1,1,0,0,-5]];perimeter=orthogonalPerimeter;outlineConnect=0;targetShapes=umlLifeline;portConstraint=eastwest;newEdgeStyle={&quot;curved&quot;:0,&quot;rounded&quot;:0};" vertex="1" parent="Vo9VUcNq0Erq066h-NFs-59">
          <mxGeometry x="45" y="490" width="10" height="120" as="geometry" />
        </mxCell>
        <mxCell id="Vo9VUcNq0Erq066h-NFs-61" value="Платежная ссылка" style="html=1;verticalAlign=bottom;endArrow=block;curved=0;rounded=0;dashed=1;" edge="1" parent="1">
          <mxGeometry width="80" relative="1" as="geometry">
            <mxPoint x="585" y="-1804" as="sourcePoint" />
            <mxPoint x="69" y="-1804" as="targetPoint" />
          </mxGeometry>
        </mxCell>
        <mxCell id="Vo9VUcNq0Erq066h-NFs-62" value="Внешняя&lt;div&gt;оплата&lt;/div&gt;" style="html=1;align=left;spacingLeft=2;endArrow=block;rounded=0;edgeStyle=orthogonalEdgeStyle;curved=0;rounded=0;exitX=1;exitY=0.06;exitDx=0;exitDy=0;exitPerimeter=0;" edge="1" parent="1" target="Vo9VUcNq0Erq066h-NFs-60">
          <mxGeometry x="-0.0502" y="1" relative="1" as="geometry">
            <mxPoint x="775" y="-1795" as="sourcePoint" />
            <Array as="points">
              <mxPoint x="789" y="-1794" />
              <mxPoint x="789" y="-1770" />
            </Array>
            <mxPoint x="774" y="-1764" as="targetPoint" />
            <mxPoint as="offset" />
          </mxGeometry>
        </mxCell>
        <mxCell id="Vo9VUcNq0Erq066h-NFs-63" value="Переход по платежной ссылке" style="html=1;verticalAlign=bottom;endArrow=block;curved=0;rounded=0;entryX=0;entryY=0;entryDx=0;entryDy=5;entryPerimeter=0;" edge="1" parent="1" source="Vo9VUcNq0Erq066h-NFs-3" target="Vo9VUcNq0Erq066h-NFs-60">
          <mxGeometry x="-0.2787" y="-15" width="80" relative="1" as="geometry">
            <mxPoint x="70" y="-1780" as="sourcePoint" />
            <mxPoint x="586" y="-1778" as="targetPoint" />
            <mxPoint as="offset" />
          </mxGeometry>
        </mxCell>
        <mxCell id="Vo9VUcNq0Erq066h-NFs-64" style="edgeStyle=orthogonalEdgeStyle;rounded=0;orthogonalLoop=1;jettySize=auto;html=1;curved=0;exitX=0;exitY=1;exitDx=0;exitDy=-5;exitPerimeter=0;entryX=1;entryY=0;entryDx=0;entryDy=5;entryPerimeter=0;" edge="1" parent="1" target="Vo9VUcNq0Erq066h-NFs-68">
          <mxGeometry relative="1" as="geometry">
            <mxPoint x="765" y="-1768" as="sourcePoint" />
            <mxPoint x="69" y="-1768" as="targetPoint" />
          </mxGeometry>
        </mxCell>
        <mxCell id="Vo9VUcNq0Erq066h-NFs-65" value="Результат внешней оплаты" style="edgeLabel;html=1;align=center;verticalAlign=middle;resizable=0;points=[];" vertex="1" connectable="0" parent="Vo9VUcNq0Erq066h-NFs-64">
          <mxGeometry x="0.3189" y="-1" relative="1" as="geometry">
            <mxPoint x="28" y="-8" as="offset" />
          </mxGeometry>
        </mxCell>
        <mxCell id="Vo9VUcNq0Erq066h-NFs-66" style="edgeStyle=orthogonalEdgeStyle;rounded=0;orthogonalLoop=1;jettySize=auto;html=1;curved=0;entryX=1;entryY=1;entryDx=0;entryDy=-5;entryPerimeter=0;dashed=1;startArrow=classic;startFill=1;endArrow=none;endFill=0;" edge="1" parent="1" target="Vo9VUcNq0Erq066h-NFs-68">
          <mxGeometry relative="1" as="geometry">
            <mxPoint x="765" y="-1705" as="sourcePoint" />
            <mxPoint x="595" y="-1700" as="targetPoint" />
            <Array as="points">
              <mxPoint x="765" y="-1705" />
            </Array>
          </mxGeometry>
        </mxCell>
        <mxCell id="Vo9VUcNq0Erq066h-NFs-67" value="OK" style="edgeLabel;html=1;align=center;verticalAlign=middle;resizable=0;points=[];" vertex="1" connectable="0" parent="Vo9VUcNq0Erq066h-NFs-66">
          <mxGeometry x="0.0409" relative="1" as="geometry">
            <mxPoint x="4" y="-7" as="offset" />
          </mxGeometry>
        </mxCell>
        <mxCell id="Vo9VUcNq0Erq066h-NFs-68" value="" style="html=1;points=[[0,0,0,0,5],[0,0.39,0,0,0],[0,1,0,0,-5],[1,0,0,0,5],[1,0.5,0,0,0],[1,0.86,0,0,0],[1,1,0,0,-5]];perimeter=orthogonalPerimeter;outlineConnect=0;targetShapes=umlLifeline;portConstraint=eastwest;newEdgeStyle={&quot;curved&quot;:0,&quot;rounded&quot;:0};" vertex="1" parent="1">
          <mxGeometry x="585" y="-1773" width="10" height="74" as="geometry" />
        </mxCell>
        <mxCell id="Vo9VUcNq0Erq066h-NFs-69" style="edgeStyle=orthogonalEdgeStyle;rounded=0;orthogonalLoop=1;jettySize=auto;html=1;curved=0;exitX=0;exitY=1;exitDx=0;exitDy=-5;exitPerimeter=0;dashed=1;" edge="1" parent="1" source="Vo9VUcNq0Erq066h-NFs-70">
          <mxGeometry relative="1" as="geometry">
            <mxPoint x="595" y="-1719.1904761904764" as="targetPoint" />
            <Array as="points">
              <mxPoint x="750" y="-1719" />
              <mxPoint x="750" y="-1719" />
            </Array>
          </mxGeometry>
        </mxCell>
        <mxCell id="Vo9VUcNq0Erq066h-NFs-70" value="" style="html=1;points=[[0,0,0,0,5],[0,1,0,0,-5],[1,0,0,0,5],[1,1,0,0,-5]];perimeter=orthogonalPerimeter;outlineConnect=0;targetShapes=umlLifeline;portConstraint=eastwest;newEdgeStyle={&quot;curved&quot;:0,&quot;rounded&quot;:0};" vertex="1" parent="1">
          <mxGeometry x="1405" y="-1737.75" width="10" height="23.5" as="geometry" />
        </mxCell>
        <mxCell id="Vo9VUcNq0Erq066h-NFs-71" value="" style="html=1;verticalAlign=bottom;endArrow=block;curved=0;rounded=0;entryX=0;entryY=0;entryDx=0;entryDy=5;entryPerimeter=0;" edge="1" parent="1" target="Vo9VUcNq0Erq066h-NFs-70">
          <mxGeometry width="80" relative="1" as="geometry">
            <mxPoint x="595" y="-1732.75" as="sourcePoint" />
            <mxPoint x="1394" y="-1735" as="targetPoint" />
          </mxGeometry>
        </mxCell>
        <mxCell id="Vo9VUcNq0Erq066h-NFs-72" value="Уведомление о результате оплаты" style="edgeLabel;html=1;align=center;verticalAlign=middle;resizable=0;points=[];" vertex="1" connectable="0" parent="Vo9VUcNq0Erq066h-NFs-71">
          <mxGeometry x="-0.0286" y="-1" relative="1" as="geometry">
            <mxPoint x="39" y="-10" as="offset" />
          </mxGeometry>
        </mxCell>
        <mxCell id="Vo9VUcNq0Erq066h-NFs-73" value="" style="shape=image;verticalLabelPosition=bottom;labelBackgroundColor=default;verticalAlign=top;aspect=fixed;imageAspect=0;image=https://assets-global.website-files.com/6064b31ff49a2d31e0493af1/64836bf8d0bac274cea41125_rabbitmq.svg;" vertex="1" parent="1">
          <mxGeometry x="1120" y="-1754" width="20" height="20" as="geometry" />
        </mxCell>
        <mxCell id="Vo9VUcNq0Erq066h-NFs-74" value="Зачисление на кошелек" style="html=1;align=left;spacingLeft=2;endArrow=block;rounded=0;edgeStyle=orthogonalEdgeStyle;curved=0;rounded=0;exitX=1;exitY=0.06;exitDx=0;exitDy=0;exitPerimeter=0;" edge="1" parent="1">
          <mxGeometry x="-0.0502" y="1" relative="1" as="geometry">
            <mxPoint x="595" y="-1756.75" as="sourcePoint" />
            <Array as="points">
              <mxPoint x="595" y="-1754" />
              <mxPoint x="609" y="-1754" />
              <mxPoint x="609" y="-1744" />
              <mxPoint x="595" y="-1744" />
            </Array>
            <mxPoint x="595" y="-1744" as="targetPoint" />
            <mxPoint as="offset" />
          </mxGeometry>
        </mxCell>
        <mxCell id="Vo9VUcNq0Erq066h-NFs-75" value="opt" style="shape=umlFrame;whiteSpace=wrap;html=1;pointerEvents=0;width=65;height=15;" vertex="1" parent="1">
          <mxGeometry x="490" y="-1758" width="260" height="21" as="geometry" />
        </mxCell>
        <mxCell id="Vo9VUcNq0Erq066h-NFs-83" value="&lt;h3 style=&quot;border-color: var(--border-color);&quot;&gt;store&lt;/h3&gt;&lt;font style=&quot;border-color: var(--border-color); font-size: 11px;&quot;&gt;сервис склада&lt;/font&gt;" style="shape=umlLifeline;perimeter=lifelinePerimeter;whiteSpace=wrap;html=1;container=1;dropTarget=0;collapsible=0;recursiveResize=0;outlineConnect=0;portConstraint=eastwest;newEdgeStyle={&quot;curved&quot;:0,&quot;rounded&quot;:0};size=80;" vertex="1" parent="1">
          <mxGeometry x="890" y="-2290" width="100" height="690" as="geometry" />
        </mxCell>
        <mxCell id="Vo9VUcNq0Erq066h-NFs-85" value="&lt;h3 style=&quot;border-color: var(--border-color);&quot;&gt;delivery&lt;/h3&gt;&lt;font style=&quot;border-color: var(--border-color); font-size: 11px;&quot;&gt;сервис доставки&lt;/font&gt;" style="shape=umlLifeline;perimeter=lifelinePerimeter;whiteSpace=wrap;html=1;container=1;dropTarget=0;collapsible=0;recursiveResize=0;outlineConnect=0;portConstraint=eastwest;newEdgeStyle={&quot;curved&quot;:0,&quot;rounded&quot;:0};size=80;" vertex="1" parent="1">
          <mxGeometry x="1030" y="-2290" width="100" height="690" as="geometry" />
        </mxCell>
        <mxCell id="Vo9VUcNq0Erq066h-NFs-110" value="&lt;h3 style=&quot;border-color: var(--border-color);&quot;&gt;orchestra&lt;/h3&gt;&lt;font style=&quot;font-size: 10px;&quot;&gt;сервис согласования заказа&lt;/font&gt;" style="shape=umlLifeline;perimeter=lifelinePerimeter;whiteSpace=wrap;html=1;container=1;dropTarget=0;collapsible=0;recursiveResize=0;outlineConnect=0;portConstraint=eastwest;newEdgeStyle={&quot;curved&quot;:0,&quot;rounded&quot;:0};size=80;" vertex="1" parent="1">
          <mxGeometry x="1180" y="-2290" width="100" height="690" as="geometry" />
        </mxCell>
        <mxCell id="Vo9VUcNq0Erq066h-NFs-144" value="" style="html=1;points=[[0,0,0,0,5],[0,0.39,0,0,0],[0,1,0,0,-5],[1,0,0,0,5],[1,0.5,0,0,0],[1,0.86,0,0,0],[1,1,0,0,-5]];perimeter=orthogonalPerimeter;outlineConnect=0;targetShapes=umlLifeline;portConstraint=eastwest;newEdgeStyle={&quot;curved&quot;:0,&quot;rounded&quot;:0};" vertex="1" parent="1">
          <mxGeometry x="1536" y="-1737" width="10" height="20" as="geometry" />
        </mxCell>
        <mxCell id="Vo9VUcNq0Erq066h-NFs-145" value="Отправка письма" style="html=1;verticalAlign=bottom;endArrow=block;curved=0;rounded=0;entryX=0;entryY=0;entryDx=0;entryDy=5;entryPerimeter=0;exitX=1;exitY=0.19;exitDx=0;exitDy=0;exitPerimeter=0;" edge="1" parent="1">
          <mxGeometry width="80" relative="1" as="geometry">
            <mxPoint x="1415" y="-1731.2499999999998" as="sourcePoint" />
            <mxPoint x="1536" y="-1731" as="targetPoint" />
          </mxGeometry>
        </mxCell>
        <mxCell id="Vo9VUcNq0Erq066h-NFs-146" value="Письмо отправлено" style="html=1;verticalAlign=bottom;endArrow=open;dashed=1;endSize=8;curved=0;rounded=0;exitX=0;exitY=1;exitDx=0;exitDy=-5;exitPerimeter=0;entryX=1;entryY=0.81;entryDx=0;entryDy=0;entryPerimeter=0;" edge="1" parent="1">
          <mxGeometry x="-0.0241" y="19" relative="1" as="geometry">
            <mxPoint x="1536" y="-1722" as="sourcePoint" />
            <mxPoint x="1415" y="-1721.75" as="targetPoint" />
            <mxPoint as="offset" />
          </mxGeometry>
        </mxCell>
      </root>
    </mxGraphModel>
  </diagram>
  <diagram id="IxvswvtG4RfN2b9GRSaL" name="Страница — 3">
    <mxGraphModel dx="1434" dy="900" grid="1" gridSize="10" guides="1" tooltips="1" connect="1" arrows="1" fold="1" page="1" pageScale="1" pageWidth="827" pageHeight="1169" math="0" shadow="0">
      <root>
        <mxCell id="0" />
        <mxCell id="1" parent="0" />
        <mxCell id="fYtUOOeSNBtDHD_ZTRwI-1" value="" style="rounded=1;whiteSpace=wrap;html=1;fillColor=#326DE6;" parent="1" vertex="1">
          <mxGeometry x="80" y="360" width="590" height="310" as="geometry" />
        </mxCell>
        <mxCell id="cRX036oPpIkVUHwpnVsN-2" value="" style="shape=image;verticalLabelPosition=bottom;labelBackgroundColor=default;verticalAlign=top;aspect=fixed;imageAspect=0;image=https://eclipsys.ca/wp-content/uploads/2021/10/Kubernetes-101-Understanding-What-is-K8S-The-Hardware-Edition.png;fillColor=#0008ff;imageBackground=default;" vertex="1" parent="1">
          <mxGeometry x="180" y="420" width="380" height="190" as="geometry" />
        </mxCell>
        <mxCell id="fYtUOOeSNBtDHD_ZTRwI-2" value="&lt;font style=&quot;font-size: 20px;&quot;&gt;&lt;b&gt;Redis&lt;/b&gt;&lt;/font&gt;" style="rounded=1;whiteSpace=wrap;html=1;fillColor=#FF9933;fontColor=#FFFFFF;" parent="1" vertex="1">
          <mxGeometry x="110" y="470" width="150" height="80" as="geometry" />
        </mxCell>
        <mxCell id="fYtUOOeSNBtDHD_ZTRwI-3" value="&lt;span style=&quot;font-size: 20px;&quot;&gt;&lt;b&gt;RabbitMQ&lt;/b&gt;&lt;/span&gt;" style="rounded=1;whiteSpace=wrap;html=1;fillColor=#FF9933;fontColor=#FFFFFF;" parent="1" vertex="1">
          <mxGeometry x="490" y="470" width="150" height="80" as="geometry" />
        </mxCell>
        <mxCell id="fYtUOOeSNBtDHD_ZTRwI-4" value="&lt;span style=&quot;font-size: 20px;&quot;&gt;&lt;b&gt;Java SpringBoot&lt;/b&gt;&lt;/span&gt;" style="rounded=1;whiteSpace=wrap;html=1;fillColor=#FF9933;fontColor=#FFFFFF;" parent="1" vertex="1">
          <mxGeometry x="490" y="560" width="150" height="80" as="geometry" />
        </mxCell>
        <mxCell id="fYtUOOeSNBtDHD_ZTRwI-5" value="&lt;span style=&quot;font-size: 20px;&quot;&gt;&lt;b&gt;PostgreSQL&lt;/b&gt;&lt;/span&gt;" style="rounded=1;whiteSpace=wrap;html=1;align=center;fillColor=#FF9933;fontColor=#FFFFFF;" parent="1" vertex="1">
          <mxGeometry x="490" y="380" width="150" height="80" as="geometry" />
        </mxCell>
        <mxCell id="fYtUOOeSNBtDHD_ZTRwI-6" value="&lt;span style=&quot;font-size: 20px;&quot;&gt;&lt;b&gt;NGINX&lt;/b&gt;&lt;/span&gt;" style="rounded=1;whiteSpace=wrap;html=1;fillColor=#FF9933;fontColor=#FFFFFF;" parent="1" vertex="1">
          <mxGeometry x="110" y="380" width="150" height="80" as="geometry" />
        </mxCell>
        <mxCell id="fYtUOOeSNBtDHD_ZTRwI-8" value="&lt;span style=&quot;font-size: 20px;&quot;&gt;&lt;b&gt;Prometheus&lt;/b&gt;&lt;/span&gt;&lt;div&gt;&lt;span style=&quot;font-size: 20px;&quot;&gt;&lt;b&gt;Grafana&lt;/b&gt;&lt;/span&gt;&lt;/div&gt;" style="rounded=1;whiteSpace=wrap;html=1;fillColor=#FF9933;fontColor=#FFFFFF;" parent="1" vertex="1">
          <mxGeometry x="110" y="560" width="150" height="80" as="geometry" />
        </mxCell>
      </root>
    </mxGraphModel>
  </diagram>
</mxfile>
